<svg xmlns="http://www.w3.org/2000/svg" xmlns:xlink="http://www.w3.org/1999/xlink" width="45" height="30" viewBox="0 0 1224 1302" preserveAspectRatio="none">
    <rect width="1224" height="1302" fill="#090"/>
    <rect width="1224" height="868" fill="#c00"/>
    <rect width="136" height="1302" fill="#fff"/>
    <g fill="#c00" transform="matrix(3,0,0,3,17,0)">
        <g id="h">
            <g id="q">
                <path d="M0,8h2v12h-2zM0,66h2v12h-2zM0,118h2v12h-2zM0,168h2v8h-2zM1,218l1,-1v-6h-2v6z"/>
                <path d="M8,0v10h-2v10h-2v10h-2v10h-2v10h2v10h2v10h2v10h2v10h2v-10h2v-10h2v-10h2v-10h3v-10h-3v-10h-2v-10h-2v-10h-2v-10zM10,20v10h2v10h2v10h-2v10h-2v10h-2v-10h-2v-10h-2v-10h2v-10h2v-10zM8,40v10h2v-10z"/>
                <path d="M0,94h1v-6h1v-6h3v6h1v6h1v8h-1v6h-1v6h-3v-6h-1v-6h-1zM3,92v4h-1v4h1v4h1v-4h1v-4h-1v-4z"/>
                <path d="M11,94h1v-6h1v-6h3v6h2v20h-2v6h-3v-6h-1v-6h-1zM14,92v4h-1v4h1v4h1v-4h1v-4h-1v-4z"/>
                <path d="M0,180h2v6h2v6h2v10h2v-10h2v-6h2v-8h3v-10h-1v-16h-2v-8h-2v12h2v10h-2v10h-2v10h-2v-10h-2v-10h-2v-10h-2v-10h2v-10h2v-10h2v-10h2v-10h2v10h2v10h2v10h2v10h2v38h-2v4.5h-1v9.5h-3v8h-2v7h-2v8h-2v-8h-2v-7h-2v-8h-2z"/>
                <path d="M13,204h2v4h1v3h2v10h-3v-8h-1v-3h-1zM12,218l1,-1v-6h-2v6z"/>
            </g>
            <use xlink:href="#q" transform="matrix(-1,0,0,1,34,0)"/>
            <path d="M16,8h2v12h-2zM16,66h2v12h-2zM16,118h2v12h-2zM16,196h2v10h-2z"/>
        </g>
        <use xlink:href="#h" transform="matrix(1,0,0,-1,0,434)"/>
    </g>
</svg>