<svg width="200" height="140" xmlns="http://www.w3.org/2000/svg">
 <metadata id="metadata321">image/svg+xml</metadata>

 <g>
  <title>background</title>
  <rect fill="none" id="canvas_background" height="142" width="202" y="-1" x="-1"/>
 </g>
 <g>
  <title>Layer 1</title>
  <g stroke="null" id="Layer1000">
   <path stroke="null" fill="#607d8b" fill-rule="evenodd" d="m11.083092,102.094151l-9.695925,0.169406l0.062631,3.621968l-1.297767,0.022628l-0.152031,-8.71323l1.297767,-0.022729l0.063641,3.637424l9.695824,-0.169103l0.02586,1.453636zm0.075763,-7.182114l-10.953588,-0.958349l0.361136,-4.131499c0.063641,-0.726919 0.14799,-1.279786 0.250421,-1.656276c0.136373,-0.530239 0.34659,-0.966734 0.631054,-1.309283c0.281535,-0.340226 0.661763,-0.602668 1.132705,-0.785004c0.473265,-0.182134 0.980371,-0.2483 1.523338,-0.200721c0.930873,0.08142 1.695673,0.446395 2.289149,1.09452c0.590748,0.65055 0.820663,1.749919 0.6853,3.298006l-0.245876,2.810498l4.452935,0.389522l-0.126574,1.448585zm-5.619279,-1.951246l0.247896,-2.833429c0.081824,-0.936025 -0.033336,-1.616981 -0.348206,-2.04004c-0.315173,-0.423464 -0.787529,-0.662672 -1.420098,-0.71803c-0.459022,-0.040205 -0.861979,0.040104 -1.208569,0.243754c-0.346792,0.20365 -0.587617,0.488317 -0.725202,0.859353c-0.085865,0.239107 -0.15789,0.684997 -0.215267,1.342921l-0.245371,2.803023l3.914817,0.342448zm6.478328,-6.215481l-9.646932,-6.758751l0.379016,-1.520206l11.757583,-1.706886l-0.401442,1.609708l-3.541862,0.438717l-1.112501,4.46142l2.940002,1.975693l-0.373864,1.500306zm-3.614493,-4.170188l0.902487,-3.619342l-3.231739,0.379117c-0.980876,0.114149 -1.781942,0.183548 -2.40148,0.203145c0.65156,0.307799 1.281806,0.668026 1.895687,1.084823l2.835045,1.952257zm6.014558,-8.227237l-10.396579,-3.579844l0.474376,-1.377267l4.269791,1.470203l1.860331,-5.402698l-4.269892,-1.470203l0.474376,-1.377469l10.396276,3.579743l-0.474073,1.37757l-4.899431,-1.686986l-1.860331,5.402698l4.899229,1.686986l-0.474073,1.377267zm4.351817,-19.680051l1.009464,-1.113209c0.910265,0.829148 1.456667,1.742949 1.641225,2.737159c0.181326,0.99512 0,1.9963 -0.535694,3.008997c-0.556402,1.046436 -1.220994,1.783356 -1.994482,2.212881c-0.77571,0.428313 -1.658499,0.599941 -2.646749,0.512157c-0.990877,-0.089097 -1.950135,-0.378713 -2.876967,-0.871475c-1.010373,-0.53731 -1.789821,-1.197962 -2.337031,-1.984885c-0.547109,-0.786822 -0.827128,-1.640114 -0.838341,-2.5624c-0.012122,-0.919963 0.210318,-1.8076 0.665804,-2.664326c0.516804,-0.971987 1.197154,-1.657085 2.044384,-2.056102c0.847129,-0.39922 1.786184,-0.491246 2.821812,-0.274059l-0.37346,1.42222c-0.827532,-0.15001 -1.514044,-0.09738 -2.065598,0.160112c-0.550139,0.255472 -0.996837,0.70813 -1.343022,1.358983c-0.396694,0.746011 -0.548523,1.462627 -0.458214,2.154493c0.092936,0.692674 0.38437,1.30009 0.880869,1.822147c0.493064,0.523168 1.060579,0.955319 1.700421,1.295443c0.82733,0.440031 1.609809,0.702574 2.354002,0.790863c0.743688,0.085258 1.403128,-0.042629 1.978723,-0.388916c0.575494,-0.346489 1.018859,-0.815208 1.333931,-1.40737c0.382249,-0.718939 0.497509,-1.437372 0.349418,-2.157018c-0.150111,-0.720656 -0.588223,-1.385652 -1.310495,-1.995694zm-3.725107,-7.943379l5.082979,-6.996445l8.895566,6.462973l-0.860666,1.184931l-7.845494,-5.700193l-3.367607,4.635271l7.845291,5.700092l-0.854504,1.176445l-8.895566,-6.463074zm11.330281,-6.343571c-1.313222,-1.268068 -2.001048,-2.611999 -2.062062,-4.034118c-0.06162,-1.422119 0.445384,-2.690894 1.523136,-3.806931c0.70419,-0.729242 1.515964,-1.219681 2.42936,-1.469092c0.915619,-0.247795 1.833663,-0.225773 2.755141,0.069601c0.919357,0.293657 1.775982,0.82531 2.566037,1.588292c0.802884,0.775407 1.366458,1.629103 1.685167,2.563309c0.320325,0.935822 0.356287,1.856795 0.109604,2.764535c-0.2483,0.909659 -0.703483,1.705169 -1.366761,2.391984c-0.720252,0.745809 -1.540915,1.237965 -2.467343,1.475254c-0.926529,0.240724 -1.846694,0.20961 -2.760797,-0.089501c-0.912083,-0.297394 -1.717392,-0.782782 -2.41148,-1.453333zm1.058659,-1.063205c0.953804,0.921175 1.950539,1.389086 2.993844,1.406865c1.04482,0.016365 1.939932,-0.361641 2.686752,-1.134725c0.761265,-0.788439 1.110784,-1.70335 1.047547,-2.746958c-0.063641,-1.043406 -0.602466,-2.05883 -1.621123,-3.042231c-0.642671,-0.62075 -1.311,-1.052598 -2.001553,-1.299383c-0.690351,-0.246886 -1.369994,-0.287596 -2.038929,-0.125564c-0.668834,0.165668 -1.255037,0.507106 -1.758405,1.028253c-0.716514,0.742072 -1.077751,1.62486 -1.083307,2.651497c-0.010102,1.02492 0.585394,2.113278 1.775174,3.262246zm11.798495,-4.506878l-7.067864,-8.423008l3.177089,-2.665841c0.558827,-0.469022 1.009464,-0.80046 1.347972,-0.994109c0.471447,-0.278605 0.929054,-0.438616 1.372216,-0.47973c0.439626,-0.041518 0.894001,0.041922 1.356054,0.245775c0.463466,0.205873 0.868545,0.517713 1.219074,0.935418c0.600547,0.715807 0.883395,1.514549 0.844604,2.39259c-0.042427,0.877637 -0.657015,1.817803 -1.847199,2.816559l-2.161261,1.813459l2.87323,3.424177l-1.113916,0.934711zm-2.593715,-5.353098l2.178939,-1.828309c0.719747,-0.603981 1.119674,-1.166647 1.196245,-1.688804c0.076773,-0.522056 -0.088895,-1.025324 -0.496297,-1.511822c-0.296182,-0.352853 -0.638024,-0.580949 -1.027243,-0.682169c-0.389017,-0.10132 -0.760659,-0.070106 -1.12028,0.094552c-0.229511,0.108997 -0.596001,0.373157 -1.101996,0.797732l-2.1552,1.808408l2.525832,3.010411zm12.664717,-2.90808l-5.138841,-8.224207l-3.072132,1.919729l-0.687724,-1.100682l7.390209,-4.618098l0.687724,1.100884l-3.085062,1.92781l5.138841,8.223803l-1.233015,0.770761zm5.914349,-3.823194l-4.991861,-9.797245l1.297868,-0.661157l2.050243,4.023612l5.091161,-2.594018l-2.050142,-4.023713l1.298171,-0.661359l4.99176,9.796942l-1.29807,0.661359l-2.352284,-4.616785l-5.091363,2.59422l2.352385,4.616785l-1.297868,0.661359zm8.324921,-10.141107c-0.564181,-1.736181 -0.540543,-3.245882 0.072732,-4.52991c0.613578,-1.284331 1.656681,-2.166918 3.132136,-2.646345c0.964107,-0.313153 1.911042,-0.365177 2.83454,-0.156475c0.924711,0.211025 1.72517,0.66146 2.400166,1.354841c0.673885,0.690654 1.180688,1.562634 1.519903,2.606948c0.344973,1.06169 0.441748,2.079942 0.284565,3.054353c-0.156475,0.976936 -0.55721,1.806893 -1.201093,2.492496c-0.646307,0.686512 -1.421513,1.175233 -2.329758,1.470405c-0.985927,0.320325 -1.941852,0.369723 -2.871108,0.144151c-0.930974,-0.222238 -1.728807,-0.681966 -2.39552,-1.375045c-0.665905,-0.690957 -1.148868,-1.497579 -1.446969,-2.41542l0.000404,0zm1.433837,-0.441748c0.409725,1.2613 1.070074,2.14227 1.982764,2.647759c0.915013,0.505086 1.882656,0.591455 2.905151,0.259311c1.042193,-0.33871 1.780426,-0.98229 2.214598,-1.933366c0.433767,-0.951177 0.434374,-2.100853 0,-3.44731c-0.276181,-0.849756 -0.663581,-1.544956 -1.157353,-2.087013c-0.493772,-0.542159 -1.074721,-0.897234 -1.741535,-1.068155c-0.668026,-0.167789 -1.345952,-0.141525 -2.03499,0.08243c-0.98128,0.31881 -1.714462,0.92865 -2.201365,1.832551c-0.487913,0.901477 -0.475488,2.140856 0.035356,3.713793l-0.002626,0zm11.084708,-1.400299l-0.305274,-1.322314l4.043513,-0.933398l0.305173,1.322213l-4.043412,0.933499zm9.6239,-4.906199l0.158092,1.288271l4.058059,-0.498317c0.094956,1.234429 -0.127282,2.241772 -0.665501,3.024856c-0.538017,0.785812 -1.29514,1.237156 -2.273491,1.357367c-1.737898,0.213348 -2.938891,-0.57802 -3.607725,-2.368548l-1.34777,0.53438c0.926428,2.336526 2.593917,3.354475 5.000246,3.058899c1.722746,-0.21153 2.935355,-0.922488 3.64005,-2.136411c0.7052,-1.210993 0.931277,-2.626445 0.678734,-4.2409c-0.122029,-0.993806 -0.421039,-1.875282 -0.898042,-2.649881c-0.473871,-0.772276 -1.130886,-1.375146 -1.970339,-1.805984c-0.839654,-0.430737 -1.794165,-0.579232 -2.866461,-0.447506c-1.130886,0.138696 -2.044283,0.534482 -2.73524,1.189577c-0.693179,0.655096 -1.113512,1.495962 -1.257663,2.527246l1.458384,0.197589c0.224662,-1.572735 1.124623,-2.456938 2.69746,-2.649982c1.062296,-0.130514 1.935084,0.087481 2.615838,0.653783c0.680653,0.566403 1.119977,1.392016 1.312414,2.474818l-3.997045,0.490741zm8.519177,-5.702416l1.453939,-0.025254l0.083844,4.814677c0.665501,-0.011516 1.129169,-0.147788 1.396056,-0.411039c0.26416,-0.26315 0.59893,-0.886021 1.001686,-1.873665c0.291939,-0.724697 0.533875,-1.238571 0.728333,-1.538895c0.192135,-0.300324 0.469022,-0.556099 0.829148,-0.764598c0.362348,-0.208701 0.762679,-0.318002 1.203013,-0.32578c0.560241,-0.010102 0.854706,-0.010102 0.885617,0l0.022224,1.259178c-0.051519,0.000909 -0.148495,0.000202 -0.294364,-0.00202c-0.158799,-0.00202 -0.256179,-0.003031 -0.29204,-0.003031c-0.465689,0.008081 -0.806824,0.126776 -1.028051,0.355883c-0.226682,0.229309 -0.481852,0.7151 -0.763487,1.454747c-0.352247,0.935721 -0.654187,1.527379 -0.906022,1.774972c-0.251533,0.245067 -0.553069,0.444879 -0.903699,0.597011c0.712474,0.182134 1.422725,0.82531 2.133178,1.926497l2.329151,3.620958l-1.806893,0.031517l-1.890232,-2.952629c-0.51842,-0.815309 -0.953399,-1.373631 -1.296656,-1.677389c-0.345681,-0.301233 -0.788742,-0.447001 -1.328678,-0.437505l0.089905,5.1447l-1.45404,0.025456l-0.191933,-10.993793zm17.54061,7.798824l1.427372,0.469325c-0.387199,1.168768 -0.999766,2.039636 -1.832854,2.612605c-0.835411,0.570444 -1.822551,0.8144 -2.966771,0.734495c-1.182304,-0.082632 -2.125804,-0.389926 -2.832924,-0.922084c-0.706817,-0.534178 -1.22261,-1.270896 -1.54435,-2.209547c-0.321537,-0.941277 -0.447102,-1.935589 -0.374066,-2.98253c0.079804,-1.141695 0.36649,-2.122268 0.862888,-2.942325c0.496095,-0.819855 1.161798,-1.422725 1.999836,-1.808105c0.835411,-0.385481 1.736787,-0.543169 2.704834,-0.475386c1.097955,0.076672 2.000543,0.419625 2.709784,1.031284c0.70914,0.611558 1.175132,1.43212 1.398178,2.466434l-1.451313,0.237289c-0.199408,-0.817127 -0.526703,-1.422725 -0.986331,-1.822046c-0.457203,-0.398613 -1.052497,-0.62277 -1.787902,-0.673986c-0.842685,-0.059095 -1.559098,0.093643 -2.154291,0.457607c-0.595193,0.36649 -1.031587,0.879859 -1.306555,1.545865c-0.277393,0.663177 -0.441445,1.357569 -0.491852,2.080245c-0.065661,0.934711 0.013132,1.756384 0.234966,2.472394c0.224662,0.713888 0.60984,1.26433 1.16008,1.649104c0.550745,0.384976 1.159171,0.599436 1.828309,0.646307c0.812178,0.056671 1.51556,-0.130009 2.112874,-0.558018c0.597112,-0.430535 1.026435,-1.100985 1.290089,-2.008927zm5.964252,-6.152245l8.426342,1.945387l-2.473404,10.713571l-1.426867,-0.329417l2.181363,-9.448938l-5.58271,-1.288776l-2.181262,9.448837l-1.416866,-0.327093l2.473404,-10.713571zm8.730706,13.336985l3.940576,-10.265156l7.421121,2.848581l-0.465184,1.211801l-6.063653,-2.327636l-1.206245,3.142844l5.678576,2.179949l-0.462355,1.204528l-5.678677,-2.179848l-1.341305,3.494283l6.302457,2.41936l-0.465184,1.2117l-7.660127,-2.940406zm15.938075,-5.247637l5.960312,3.037079l-4.402629,8.640498l0.882991,0.449728l-1.753859,3.442158l-1.156545,-0.589435l1.164525,-2.285613l-6.475904,-3.299421l-1.164525,2.28531l-1.156444,-0.589031l1.753758,-3.442057l0.761972,0.388007c1.394541,-0.786216 3.01435,-2.989298 4.85761,-6.607024l0.728737,-1.4302zm4.073212,3.532063l-3.414883,-1.739919l-0.255472,0.501853c-0.424272,0.832684 -1.077347,1.933669 -1.964884,3.303158c-0.885112,1.370802 -1.784669,2.409157 -2.694631,3.117792l4.516475,2.301372l3.813396,-7.484256zm5.962838,2.182172l1.080176,0.756315l-4.994185,7.132414l9.78583,-3.777131l1.199578,0.839856l-6.306801,9.006988l-1.081994,-0.757628l4.982164,-7.115342l-9.780375,3.755614l-1.191194,-0.834098l6.306801,-9.006988zm9.927153,7.416272l1.114017,0.934711l-6.233463,7.428798l4.389092,3.682781l6.233362,-7.428697l1.121896,0.941176l-6.233463,7.428899l0.768639,0.644994l-2.795749,3.331948l-0.988452,-0.82935l1.96155,-2.337637l-6.405091,-5.374514l7.067662,-8.423109zm10.057465,9.188314l0.864908,0.995221l-6.571163,5.712214l10.408904,-1.297363l0.960875,1.105127l-8.298454,7.213834l-0.866727,-0.99714l6.555606,-5.698678l-10.398499,1.278068l-0.953905,-1.09745l8.298454,-7.213834zm3.357101,12.763006c1.530813,-0.994311 2.995258,-1.362216 4.394547,-1.101794c1.39939,0.260523 2.521791,1.039365 3.366698,2.340566c0.552159,0.850261 0.847432,1.751334 0.885011,2.69746c0.035356,0.947844 -0.192438,1.837602 -0.687522,2.668872c-0.492862,0.829856 -1.203922,1.544956 -2.124895,2.143078c-0.936328,0.607921 -1.894778,0.964915 -2.876563,1.065225c-0.984109,0.101724 -1.889525,-0.07051 -2.718471,-0.514884c-0.830361,-0.446799 -1.503034,-1.069064 -2.023171,-1.870029c-0.564686,-0.869353 -0.859858,-1.779719 -0.882384,-2.735846c-0.026264,-0.956733 0.211126,-1.846391 0.70813,-2.669781c0.495085,-0.821976 1.149171,-1.497276 1.958621,-2.022868zm0.797732,1.270795c-1.112198,0.722171 -1.792347,1.587989 -2.044384,2.600483c-0.250825,1.014414 -0.083844,1.971551 0.50155,2.87323c0.59691,0.919054 1.409795,1.465657 2.440674,1.638598c1.031082,0.172739 2.141563,-0.123948 3.329019,-0.895113c0.749446,-0.486498 1.320496,-1.040779 1.716483,-1.657994c0.395785,-0.617215 0.588223,-1.27029 0.580949,-1.95852c-0.011112,-0.688937 -0.211833,-1.336961 -0.606305,-1.944478c-0.562059,-0.865313 -1.340901,-1.415654 -2.33996,-1.652135c-0.996837,-0.237895 -2.19096,0.094956 -3.578026,0.995928zm1.594858,12.582287l9.965236,-4.646888l0.615699,1.320193l-4.09291,1.908516l2.414814,5.178541l4.09291,-1.908415l0.615598,1.320294l-9.965236,4.646888l-0.6158,-1.320294l4.696184,-2.189849l-2.414814,-5.178642l-4.696083,2.189748l-0.615598,-1.320092zm4.565872,10.647001l10.396377,-3.579743l0.474174,1.377166l-4.269791,1.470203l1.860331,5.4029l4.26969,-1.470405l0.474376,1.37757l-10.396478,3.579743l-0.474174,-1.37757l4.899128,-1.686986l-1.86023,-5.402597l-4.89933,1.686885l-0.474073,-1.377166zm3.205273,9.874826l11.59939,2.048627l0.299011,1.537985l-9.934628,6.515805l-0.316588,-1.628295l3.024755,-1.894576l-0.877435,-4.513646l-3.499536,-0.547816l-0.29497,-1.518085zm5.038127,2.252075l0.711868,3.661567l2.768677,-1.70931c0.840563,-0.518117 1.537379,-0.919559 2.090549,-1.199073c-0.720555,-0.004041 -1.44404,-0.063641 -2.176616,-0.182033l-3.394478,-0.571151zm-3.308613,19.015662l10.988641,-0.383663l-0.170113,-4.87155c-0.034346,-0.979664 -0.159809,-1.720927 -0.374773,-2.223184c-0.214762,-0.502156 -0.576909,-0.896931 -1.086439,-1.186547c-0.512258,-0.286889 -1.069973,-0.418716 -1.673752,-0.397502c-0.780559,0.027275 -1.426766,0.30093 -1.943771,0.826118c-0.517309,0.522764 -0.830058,1.315142 -0.939257,2.374306c-0.197791,-0.380127 -0.389522,-0.665299 -0.57802,-0.858544c-0.403765,-0.41114 -0.906629,-0.795712 -1.503135,-1.156646l-3.057586,-1.806792l0.063641,1.829319l2.338041,1.373429c0.672471,0.401644 1.191194,0.734495 1.548794,0.998756c0.360328,0.261432 0.614487,0.498721 0.760154,0.711261c0.148293,0.21254 0.253149,0.429121 0.317396,0.652267c0.039397,0.165163 0.066671,0.433161 0.079804,0.809248l0.05859,1.686178l-4.879025,0.170315l0.050812,1.453232zm6.086887,-1.66759l-0.109098,-3.126378c-0.023234,-0.662773 0.028285,-1.187153 0.15294,-1.565462c0.125059,-0.381037 0.335175,-0.672471 0.630246,-0.877637c0.295172,-0.205065 0.619235,-0.313557 0.974815,-0.326083c0.51943,-0.018082 0.953197,0.153849 1.301605,0.520642c0.348408,0.364268 0.535189,0.954915 0.563877,1.771032l0.121423,3.476908l-3.635808,0.126979z" id="path2"/>
   <g stroke="null" id="Layer1001">
    <path stroke="null" fill="#607d8b" fill-rule="evenodd" d="m37.628973,55.176756l1.100177,0l0,3.643586c0.503671,0 0.85612,-0.096875 1.061488,-0.292445c0.203347,-0.19567 0.464881,-0.66247 0.78258,-1.404441c0.23042,-0.544179 0.420231,-0.92966 0.571252,-1.154322c0.149303,-0.224763 0.362348,-0.414574 0.637317,-0.567716c0.27709,-0.152839 0.581151,-0.230319 0.914306,-0.230319c0.424272,0 0.646914,0.004041 0.670248,0.011617l0,0.952894c-0.038387,0 -0.112432,-0.00202 -0.222743,-0.006061c-0.120109,-0.004041 -0.193751,-0.006061 -0.220924,-0.006061c-0.352449,0 -0.611962,0.085258 -0.782478,0.255674c-0.174356,0.170517 -0.373763,0.534583 -0.596607,1.09048c-0.278807,0.70318 -0.515288,1.146645 -0.709039,1.330698c-0.193549,0.182134 -0.42407,0.329316 -0.691361,0.439626c0.536603,0.147384 1.065326,0.643176 1.588393,1.48576l1.714159,2.76999l-1.36757,0l-1.390804,-2.258641c-0.381542,-0.623579 -0.703079,-1.051689 -0.958753,-1.28615c-0.257594,-0.232541 -0.590849,-0.34861 -0.999463,-0.34861l0,3.893401l-1.100177,0l0,-8.318961zm6.287507,4.267468c0,-1.381207 0.369824,-2.46209 1.111794,-3.24275c0.74187,-0.780458 1.698704,-1.171899 2.872522,-1.171899c0.767124,0 1.460606,0.184053 2.076508,0.55024c0.616002,0.367803 1.08654,0.879455 1.410199,1.535965c0.323457,0.654793 0.484276,1.400501 0.484276,2.231367c0,0.844604 -0.168699,1.600111 -0.50953,2.264399c-0.340933,0.66641 -0.823289,1.170081 -1.446969,1.512933c-0.625599,0.342751 -1.297767,0.513268 -2.02014,0.513268c-0.7846,0 -1.48384,-0.187993 -2.099742,-0.567716c-0.618023,-0.377501 -1.084823,-0.89481 -1.40242,-1.549501c-0.317699,-0.652672 -0.476498,-1.346053 -0.476498,-2.076306zm1.135028,0.017274c0,1.003302 0.269211,1.79174 0.807632,2.368952c0.540543,0.577313 1.216448,0.865818 2.03004,0.865818c0.829047,0 1.510812,-0.290525 2.045596,-0.873495c0.534583,-0.583071 0.803793,-1.410199 0.803793,-2.481283c0,-0.676107 -0.116271,-1.266856 -0.344872,-1.772547c-0.228602,-0.505389 -0.563574,-0.896729 -1.003403,-1.175738c-0.441546,-0.276888 -0.935519,-0.416291 -1.483537,-0.416291c-0.78066,0 -1.450909,0.26719 -2.012665,0.803692c-0.561756,0.534583 -0.842584,1.429594 -0.842584,2.680893zm8.205114,4.034825l0,-8.319567l1.658196,0l1.967914,5.890509c0.182134,0.54822 0.315678,0.958854 0.397098,1.231904c0.094956,-0.302041 0.242138,-0.747628 0.443465,-1.334537l1.991451,-5.787876l1.48182,0l0,8.319567l-1.061488,0l0,-6.963614l-2.41744,6.963614l-0.993705,0l-2.405823,-7.081703l0,7.081703l-1.061488,0zm9.727543,-8.319567l6.543282,0l0,8.319567l-1.107956,0l0,-7.337478l-4.334947,0l0,7.337478l-1.100379,0l0,-8.319567zm7.428697,8.319567l3.195878,-8.319567l1.185436,0l3.405287,8.319567l-1.255239,0l-0.970471,-2.520074l-3.478726,0l-0.912285,2.520074l-1.169879,0zm2.399762,-3.416904l2.822216,0l-0.869656,-2.303089c-0.263453,-0.699341 -0.460941,-1.274533 -0.58893,-1.725978c-0.106371,0.534785 -0.255573,1.063508 -0.449223,1.590413l-0.914407,2.438654zm6.299124,3.416904l0,-8.319567l1.102299,0l0,3.416904l4.32333,0l0,-3.416904l1.102299,0l0,8.319567l-1.102299,0l0,-3.920575l-4.32333,0l0,3.920575l-1.102299,0zm8.377652,-8.319567l0.997443,0l0,6.587831l4.426064,-6.587831l1.108158,0l0,8.319567l-0.999766,0l0,-6.572274l-4.431721,6.572274l-1.100177,0l0,-8.319567zm14.918812,8.319567l0,-8.319567l-3.688236,0c-0.74187,0 -1.305444,0.075763 -1.690824,0.224662c-0.385481,0.149202 -0.693381,0.412655 -0.925923,0.790459c-0.230521,0.379622 -0.344872,0.798035 -0.344872,1.255138c0,0.590849 0.190013,1.086742 0.573474,1.491417c0.381441,0.404877 0.972391,0.662571 1.770426,0.772983c-0.292546,0.139404 -0.513268,0.276888 -0.66439,0.414574c-0.321537,0.294364 -0.625599,0.664187 -0.914306,1.105935l-1.446969,2.264399l1.385046,0l1.100177,-1.731736c0.321537,-0.497711 0.586808,-0.881374 0.796015,-1.144827c0.207388,-0.265271 0.393361,-0.451243 0.557917,-0.555897c0.164759,-0.106472 0.331235,-0.180113 0.501651,-0.222743c0.125867,-0.025052 0.329316,-0.038791 0.613982,-0.038791l1.276553,0l0,3.693994l1.100278,0zm-1.100278,-4.646888l-2.367033,0c-0.501651,0 -0.89683,-0.052428 -1.179678,-0.15688c-0.284767,-0.104654 -0.499732,-0.271332 -0.647015,-0.499934c-0.147182,-0.2284 -0.220621,-0.476498 -0.220621,-0.745607c0,-0.39326 0.141222,-0.716716 0.428009,-0.970471c0.284767,-0.253755 0.73591,-0.379622 1.353932,-0.379622l2.632405,0l0,2.752514z" id="path4"/>
    <g stroke="null" id="Layer1002">
     <path stroke="null" fill="#607d8b" fill-rule="evenodd" d="m37.048023,65.371503l24.871624,0l0,1.427372l-2.972832,0l0,34.445823l3.052838,0l0,1.374338l-18.124085,0l0,-1.374338l2.972731,0l0,-34.445823l-2.17106,0c-0.58792,0 -1.068862,0.177285 -1.436261,0.540745c-0.374167,0.363662 -0.56115,1.205942 -0.56115,2.518154l0,15.711089c0,2.988086 -0.180316,5.61251 -0.547917,7.864485c-0.367399,2.243287 -0.895113,4.114225 -1.596575,5.594832c-0.694796,1.471617 -1.549905,2.580179 -2.551894,3.307098c-1.00209,0.727121 -2.124491,1.090581 -3.367001,1.090581c-1.082196,0 -2.044081,-0.310325 -2.892726,-0.922084c-0.848342,-0.611861 -1.496265,-1.45404 -1.937205,-2.518154c-0.447708,-1.063912 -0.668127,-2.243085 -0.668127,-3.546408c0,-1.383227 0.227086,-2.5624 0.674794,-3.53772c0.447607,-0.984109 1.042092,-1.720119 1.783659,-2.225508c0.748133,-0.496398 1.549905,-0.744698 2.425017,-0.744698c1.329486,0 2.431684,0.531956 3.300229,1.595868c0.87501,1.064013 1.309283,2.509164 1.309283,4.344544c0,2.003876 -0.387502,3.493273 -1.16897,4.468593l0.133545,0.150718c1.068862,-0.549634 1.984077,-1.915082 2.758979,-4.087455c0.768336,-2.17207 1.155737,-5.780603 1.155737,-10.834691l0,-15.267826c0,-1.471718 -0.220419,-2.42037 -0.66146,-2.854945c-0.440839,-0.434475 -1.001989,-0.647217 -1.690117,-0.647217l-2.091054,0l0,-1.427372z" id="path6"/>
     <path stroke="null" fill="#607d8b" fill-rule="evenodd" d="m89.530147,98.957266l0.607921,0.833391c-0.454173,0.727121 -1.04876,1.356559 -1.783659,1.888515c-0.728232,0.540745 -1.503034,0.939863 -2.324707,1.197053c-0.821774,0.256988 -1.576675,0.390027 -2.271471,0.390027c-1.189072,0 -2.191162,-0.310325 -3.012835,-0.930974c-0.821673,-0.629539 -1.589908,-1.631325 -2.311574,-3.014552c-2.551793,2.633415 -5.150458,3.945526 -7.78256,3.945526c-1.723655,0 -3.179917,-0.602971 -4.375758,-1.8175c-1.195942,-1.214731 -1.790528,-2.987985 -1.790528,-5.328652c0,-2.278744 0.581252,-4.043109 1.750424,-5.293397c1.16897,-1.250087 2.73221,-2.101459 4.689719,-2.562198c1.957206,-0.452254 4.308885,-0.709443 7.061298,-0.762578l0,-7.376875c0,-1.055124 -0.126877,-1.782245 -0.374268,-2.18106c-0.247189,-0.399119 -0.881778,-0.602971 -1.910638,-0.602971c-0.981987,0 -1.469597,0.292546 -1.469597,0.859959c0,0.177487 0.140313,0.540947 0.41417,1.099369c0.280626,0.567514 0.44094,0.904406 0.480942,1.028657c0.180417,0.540644 0.273958,1.143615 0.273958,1.817702c0,1.453939 -0.447607,2.597655 -1.34282,3.422156c-0.895214,0.833593 -1.970743,1.250289 -3.226688,1.250289c-1.336052,0 -2.378145,-0.416696 -3.126378,-1.259077c-0.755002,-0.842281 -1.129068,-1.941751 -1.129068,-3.307098c0,-1.8175 0.815006,-3.3073 2.438351,-4.450915c1.623345,-1.152605 4.349089,-1.729009 8.170263,-1.729009c4.328886,0 7.108069,0.806824 8.337144,2.42936c1.22261,1.622638 1.837299,3.520042 1.837299,5.701203l0,14.106433c0,1.037345 0.327396,1.551522 0.97532,1.551522c0.394068,0 0.794904,-0.301334 1.195739,-0.904305zm-11.54373,-3.085567l0,-6.83603c-0.273958,-0.10627 -0.795106,-0.159708 -1.563341,-0.159708c-0.848443,0 -1.423028,0.337195 -1.730221,1.010878c-0.307294,0.673885 -0.460941,1.764466 -0.460941,3.263055l0,2.41148c0,1.214832 0.180215,2.163483 0.53438,2.863835c0.360732,0.700554 0.808339,1.046234 1.34282,1.046234c1.249178,0 1.877302,-1.196952 1.877302,-3.599745z" id="path8"/>
     <path stroke="null" fill="#607d8b" fill-rule="evenodd" d="m103.706282,90.170698l0,11.180472l1.122199,0l0,1.267866l-12.899985,0l0,-1.267866l2.405015,0l0,-23.105744l-2.405015,0l0,-1.267866l12.899985,0l0,1.267866l-1.122199,0l0,10.657406l4.014925,0l0,-10.657406l-1.122401,0l0,-1.267866l12.879984,0l0,1.267866l-2.384913,0l0,23.105744l2.384913,0l0,1.267866l-12.879984,0l0,-1.267866l1.122401,0l0,-11.180472l-4.014925,0z" id="path10"/>
     <path stroke="null" fill="#607d8b" fill-rule="evenodd" d="m133.688159,89.05365l0.667925,0c1.028859,0 1.716988,-0.52337 2.057617,-1.569503c0.340832,-1.046234 0.541048,-2.260965 0.607921,-3.653082c0.093946,-1.985794 0.454375,-3.732784 1.088964,-5.239858c0.634488,-1.507377 1.897202,-2.261066 3.794506,-2.261066c1.369489,0 2.41835,0.558726 3.133147,1.675773c0.721565,1.117148 1.082196,2.438351 1.082196,3.954416c0,1.560512 -0.367399,2.766353 -1.109067,3.626312c-0.741365,0.86006 -1.623143,1.285746 -2.65877,1.285746c-1.750222,0 -2.865855,-0.957541 -3.333362,-2.881614c-0.040407,-0.159708 -0.079804,-0.469932 -0.12708,-0.939863c-0.046468,-0.461143 -0.086875,-0.789146 -0.126877,-0.966431c-0.040407,-0.186175 -0.147081,-0.274969 -0.313961,-0.274969c-0.227187,0 -0.354166,0.150819 -0.394068,0.469932c-0.040407,0.310325 -0.079804,0.87794 -0.120311,1.711331c-0.053539,1.365347 -0.180417,2.473707 -0.380936,3.315886c-0.200216,0.833593 -0.60782,1.560512 -1.222408,2.163483l1.957408,0c2.090953,0 3.647627,0.292647 4.669516,0.886627c1.015525,0.585394 1.670116,1.33878 1.970844,2.252075c0.293859,0.904507 0.48761,2.065901 0.594587,3.466705c0.106876,1.365549 0.227086,2.252176 0.360732,2.651093c0.140212,0.399119 0.44094,0.594082 0.915215,0.594082c0.561049,0 1.068963,-0.283757 1.529803,-0.85117l0.648025,0.85117c-2.030848,2.633415 -4.275549,3.945526 -6.747337,3.945526c-1.616678,0 -2.832419,-0.407705 -3.640859,-1.232409c-0.815107,-0.824603 -1.336052,-1.870837 -1.583241,-3.147592c-0.240421,-1.267866 -0.427605,-3.147592 -0.554483,-5.621299c-0.066671,-1.285645 -0.273857,-2.092468 -0.627922,-2.429259c-0.354065,-0.336993 -0.841675,-0.505389 -1.469799,-0.505389l-0.667925,0l0,11.020865l2.27137,0l0,1.267866l-14.049156,0l0,-1.267866l2.405015,0l0,-23.096955l-2.405015,0l0,-1.276654l14.049156,0l0,1.276654l-2.27137,0l0,10.799436z" id="path12"/>
     <path stroke="null" fill="#607d8b" fill-rule="evenodd" d="m171.699886,97.473729l0.761568,1.179981c-0.955319,2.765545 -2.004179,4.922159 -3.159815,6.444689c-1.155737,1.534854 -2.318242,2.57533 -3.487212,3.133349c-1.162404,0.558221 -2.358244,0.837331 -3.567318,0.837331c-1.723655,0 -3.27356,-0.405988 -4.649716,-1.23059c-1.376156,-0.811874 -2.571997,-2.042566 -3.580652,-3.678942c-1.008858,-1.636679 -1.783659,-3.691771 -2.318141,-6.16568c-0.53438,-2.473707 -0.801672,-5.290064 -0.801672,-8.436242c0,-5.429871 0.768235,-9.552885 2.304705,-12.382071c1.543238,-2.816357 3.213354,-4.630523 5.010448,-5.442398c1.80366,-0.799146 3.360334,-1.205134 4.676284,-1.205134c1.957408,0 3.660961,0.431343 5.110556,1.306656c1.449696,0.862686 2.551894,2.143886 3.320129,3.856732c0.761568,1.712543 1.142402,3.742381 1.142402,6.102039c0,2.626041 -0.387401,4.757502 -1.155737,6.393878c-0.774902,1.636477 -1.776992,2.448352 -3.019603,2.448352c-0.761467,0 -1.496366,-0.279009 -2.217831,-0.837028c-0.721565,-0.558322 -1.296049,-1.433635 -1.736888,-2.613515c-0.434273,-1.192507 -0.654793,-2.702208 -0.654793,-4.541729c0,-2.131158 0.347398,-3.856631 1.048962,-5.176015c0.701362,-1.332012 1.656681,-1.991653 2.872522,-1.991653c0.587819,0 1.16897,0.190215 1.743555,0.55812c-0.140212,-1.128967 -0.56115,-1.979127 -1.249279,-2.537146c-0.694796,-0.571151 -1.523136,-0.85016 -2.491789,-0.85016c-1.670116,0 -2.845854,1.002292 -3.520547,2.994046c-0.668026,1.991653 -1.008858,5.429669 -1.008858,10.314049l0,5.023682c0,3.120822 0.126979,5.696052 0.374167,7.751346c0.24729,2.042667 0.721464,3.628231 1.422927,4.77023c0.694796,1.141695 1.676884,1.712644 2.926162,1.712644c1.075428,0 2.14429,-0.735809 3.206485,-2.220154c1.068862,-1.484345 1.964177,-3.323867 2.698975,-5.518665z" id="path14"/>
     <g stroke="null" id="Layer1003">
      <path stroke="null" fill="#607d8b" fill-rule="evenodd" d="m108.330845,104.606345l0,1.180082l0.377299,0.832987l0.532663,0l0,0l1.065427,-0.555291l0.865616,0.555291l0.910063,0.485993l0,0l0,0.62469l-1.065427,-0.277595l-0.910063,0l-0.865616,0.520541l0,0l0.155364,0.833088l0.155364,0.62469l0.221935,0.833088l0,0l0.710352,-0.833088l0.688028,-0.312345l0.532663,0l0.754699,0.312345l0.554887,0.555392l0.688028,0.277696l0.710251,0l0.532764,-0.624791l0,0l0.532663,0l-0.532663,-1.666075l-0.710251,-1.075933l-1.065427,-0.832987l-1.08755,-0.624791l-1.065427,-0.832987l0,0l-1.08755,0l-0.688129,0l-0.909962,0z" id="path16"/>
      <path stroke="null" fill="#607d8b" fill-rule="evenodd" d="m103.847302,105.439332l1.08755,-0.208196l1.243015,-0.312446l1.065326,0l0,0l-1.065326,-0.312345l-1.243015,0l-1.287362,0l0,0l0.199812,0.832987z" id="path18"/>
      <path stroke="null" fill="#607d8b" fill-rule="evenodd" d="m115.167077,104.91869l0.532663,1.353629l1.243015,0.833088l1.220691,0.347095l0,0l0.932287,-0.555392l0.887738,0.208297l0.843493,0.347095l0.95441,0.277595l0,0l-0.399523,-1.457778l-0.133141,-1.353629l-1.087651,-0.312345l0,0l-4.993983,0.312345z" id="path20"/>
      <path stroke="null" fill="#607d8b" fill-rule="evenodd" d="m112.459212,104.606345l0.554887,0.312345l0.532663,0l0.532663,0l0,0l-0.532663,-0.312345l-0.532663,0l-0.554887,0z" id="path22"/>
      <path stroke="null" fill="#607d8b" fill-rule="evenodd" d="m122.314037,104.91869l0.133242,1.700724l0.754598,1.110683l0.865616,0.867737l0,0l4.683254,2.221366l0.3774,0l0.155364,-0.347095l0.377299,0l0,0l-0.910063,-3.366698l-0.710251,0.867636l-0.909962,0l-0.710251,-0.520541l-0.910063,-0.555392l-0.688028,-0.277696l0,0l0,-0.347095l0.532663,0.347095l0.532663,0.277696l0.532764,0l0,0l1.953166,-0.832987l-0.332952,-1.145433l-1.065326,0l-1.087651,0l0,0l-3.57348,0z" id="path24"/>
      <path stroke="null" fill="#607d8b" fill-rule="evenodd" d="m129.660809,105.231136l0.155364,0.555291l0.155364,0.832987l0.221935,0.485993l0,0l0.865616,0.62469l0.688129,0l0.932186,-0.62469l0,0l0.688129,-0.485993l-0.31083,-0.555291l0.31083,-0.277696l-1.065427,-0.867737l-1.39838,0l-1.242914,0.312446z" id="path26"/>
      <path stroke="null" fill="#607d8b" fill-rule="evenodd" d="m104.047013,106.619414l0.665905,1.97842l0.910063,1.874271l1.620213,0l0,0l0.710251,0.867737l0.754699,0.312345l0.688028,0.312446l0,0l-0.688028,-1.700724l-1.087651,-0.833088l-1.065326,-0.832987l0,0l-0.221935,0l-0.155364,0.208297l-0.177588,-0.208297l0,0l0,-0.312345l0.332952,-0.555392l0.221935,-0.277595l0,0l1.398279,1.145332l-0.177487,-1.145332l-0.688129,-0.555392l-0.532663,-0.624791l0,0l-2.508154,0.347095z" id="path28"/>
      <path stroke="null" fill="#607d8b" fill-rule="evenodd" d="m131.747216,108.806131l-1.02098,0.832987l0.554887,1.700724l0.466093,1.423028l1.08755,0.243047l0,0l0.754699,0.346994l0.865616,0l0.909962,0l0,0l0,-0.867636l0,-0.520642l0.532764,-0.312446l0,0l-0.155364,0l0,-0.312345l0,-0.242946l0,0l-0.754699,0.867737l0,-0.624791l0.221935,-0.242946l0.310729,-0.624791l0,0l-0.310729,0.347095l-0.377299,0l-0.377299,0.277696l0,0l0,-0.624791l0.199711,-0.208196l0,-0.624791l0,0l-0.199711,0l-0.177588,-0.208297l-0.155364,-0.62469l0,0l0,0l0,-0.208297l0.155364,0l0,0l0,0l0.177588,0.208297l0,0l0,0.312345l0,0l0,-0.520642l-0.710251,-0.312345l0.155364,-0.312446l0.221935,-0.242946l0,-0.277595l0,0l-0.754598,0.520541l-0.688129,0.624791l-0.932186,0.208297z" id="path30"/>
      <path stroke="null" fill="#607d8b" fill-rule="evenodd" d="m115.855104,107.452502l0.377299,1.665974l0.865717,1.145433l1.065326,0.208196l0,0l0.732475,0l0.532663,-0.485892l0.554887,0.485892l0,0l-0.355075,0.624791l-0.532663,0.555291l-0.554887,0.312446l0,0l-1.598091,-0.867737l0.887738,2.742008l1.797902,0l1.753455,-0.485993l1.464849,-1.180082l0,0l-0.399422,-1.353629l-0.133242,-1.180082l-0.732475,-0.832987l0,0l-1.065326,-0.520642l-1.087651,-0.555392l-1.065326,1.076034l0,0l-0.887839,-0.208297l-0.732475,-0.624791l-0.887839,-0.520541z" id="path32"/>
      <path stroke="null" fill="#607d8b" fill-rule="evenodd" d="m134.83238,109.430821l0.155364,-0.312345l0.221935,-0.312345l-0.221935,-0.208297l0,0l-0.155364,0.208297l-0.177588,0.312345l0.177588,0.312345z" id="path34"/>
      <path stroke="null" fill="#607d8b" fill-rule="evenodd" d="m123.534829,109.986213l0.909962,3.019704l1.243015,-0.520642l1.442726,0.520642l1.242914,0.832987l0,0l-0.710251,0l-0.688028,-0.242946l-0.754699,0l0,0l-0.532663,0.242946l-0.710251,0.347095l0,0.832987l0,0l0.155364,0.520642l0.221935,0.590041l0.332952,0.242946l0,0l0.532663,0l0.532663,-0.520642l0.532764,-0.312345l0,0l1.287362,0.590041l1.398279,0l1.08755,-0.867737l0,0l-0.532663,-2.256015l-1.953166,-1.041284l-1.975491,-1.145433l-2.152978,-1.180082l0,0l-0.377299,0l-0.155364,0.347095l-0.377299,0z" id="path36"/>
      <path stroke="null" fill="#607d8b" fill-rule="evenodd" d="m110.106423,111.339842l0.3774,1.145433l0.532663,1.110683l1.065427,0.590041l0,0l1.464849,1.075933l1.775679,0.867737l1.620314,0.832987l0,0l0.688028,-0.242946l-0.355176,-0.867737l-0.177487,-0.832987l-0.355176,-1.180082l0,0l-1.043204,0.347095l-0.909962,0.242946l-0.932287,-0.590041l0,0l-0.155364,-0.242946l-0.377299,-0.243047l0,0l0,0l0.910063,0l1.08755,-0.590041l0.909962,-0.590041l0,0l-0.377299,-1.075933l-0.532663,0l-0.710251,0.242946l0,0l-1.065427,0.312345l-1.08755,-0.832987l-1.065427,-0.555291l0,0l-0.377299,0.208196l-0.532663,0.347095l-0.3774,0.520642z" id="path38"/>
      <path stroke="null" fill="#607d8b" fill-rule="evenodd" d="m106.000279,111.964633l0.177588,0.520642l0.155364,0.520642l0.377299,0.590041l0,0l0.377299,-0.243047l0.155364,0l0.377299,-0.346994l0,0l0.332952,0.832987l-0.332952,0.347095l-0.377299,0l-0.377299,0l0,0l0.532663,1.075933l0.754699,0.590041l1.08755,0.277696l0.865616,0l0.910063,0l0,0l-1.243015,-2.776758l-2.907575,-2.013069l-0.865616,0.624791z" id="path40"/>
      <path stroke="null" fill="#607d8b" fill-rule="evenodd" d="m135.742443,112.485275l0,0l0,0.277595l0,0l0,0l0.155364,0l0,-0.277595l-0.155364,0z" id="path42"/>
      <path stroke="null" fill="#607d8b" fill-rule="evenodd" d="m131.747216,113.352911l0.377299,0.833088l0.554887,0.242946l0.155364,0.590041l0,0l0.377299,0.832987l0.688129,0.277696l0.932186,0.242946l0,0l0.377299,-0.242946l0.155364,0l0.3774,0l0,0l0,0.590041l-0.3774,0.242946l-0.377299,0.242946l0,0l-1.931043,-0.242946l0.155364,0.590041l0.3774,0.833088l0.310729,0.520642l0,0l1.464849,0.312345l1.065427,0l1.065427,-0.832987l0,0l0,-0.347095l-0.133242,0l-0.221935,-0.242946l0,0l0,0l0,-0.243047l0.221935,0l0.310729,0l0.222036,-0.347095l0,0l0,0l-0.222036,0l-0.177487,-0.242946l0,0l0,-0.242946l0.177487,0l0,-0.347095l0,0l-0.310729,0.347095l-0.377299,-0.347095l-0.177588,-0.242946l0,0l0,0l0,-0.277696l0.177588,-0.312345l0,0l-0.177588,0l-0.199711,0.312345l0,0.277696l-0.177588,0.242946l0,0l-0.377299,-0.242946l0.221935,-0.590041l0.332952,-0.520642l0.377299,-0.347095l0,0l-0.177588,-0.832987l0,0.347095l-0.754598,0l0,0.242946l-1.39838,-0.242946l-1.442726,-0.347095l-1.464849,-0.485993z" id="path44"/>
      <path stroke="null" fill="#607d8b" fill-rule="evenodd" d="m118.673986,115.851973l0.554887,1.943771l1.287362,0.832987l1.398279,0.590041l0,0l0.532764,0l0.399422,-0.312345l0.133242,-0.520642l0,0l0.932186,0.242946l0.688028,0.277696l0.754699,0.312345l0,0l-0.377299,-1.180082l-0.532764,-1.076034l-0.710251,-0.590041l0,0l-0.887839,-0.242946l-0.710251,0.242946l-0.754598,0.590041l0,0l-0.332952,-0.242946l-0.221935,-0.590041l0.421746,-0.590041l0,0l0.532663,-0.277696l0.532663,-0.590041l0.532663,-0.242946l0,0l0.133242,0.590041l0.221935,0.242946l0.332952,0l0,0l0.377299,0l-0.177588,-0.590041l-0.199711,-0.832987l-0.332952,-0.242946l0,0l-1.620314,0.590041l-1.420503,0.832987l-1.487073,0.832987z" id="path46"/>
      <path stroke="null" fill="#607d8b" fill-rule="evenodd" d="m112.081913,115.851973l0.932186,2.186717l1.398279,-0.485993l0.532764,0.485993l0.754598,0.347095l0.532663,0.832987l0,0l-0.909962,-0.312345l-0.910063,-0.277696l-0.865616,0.867737l0,0l0.310729,0.832987l0.554887,1.075933l0.532764,0.347095l0,0l0.532663,-0.590041l0.532663,-0.242946l0.732475,-0.347095l0,0l0.887839,0.832987l0.910063,0.590041l1.08755,-0.832987l0,0l-0.732475,-1.665974l-0.887839,-0.867737l-1.065326,-0.590041l-1.243015,-0.485993l0,0l-1.08755,-0.832987l-1.287362,-0.590041l-1.065427,-0.590041l0,0l-0.177487,0.312345z" id="path48"/>
      <path stroke="null" fill="#607d8b" fill-rule="evenodd" d="m126.220469,117.795744l0.377299,1.700724l1.220792,0.832987l1.46495,0.590041l0,0l1.442726,0.832987l1.398279,0.520642l1.46495,1.180082l0,0l1.065326,0.242946l-0.532663,-1.423028l-0.532663,-1.110683l-0.754699,-1.423028l0,0l-1.08755,0.590041l-1.02098,-0.242946l-1.065427,-0.590041l0,0l-0.221935,-0.590041l0.909962,0l0.932287,0.590041l0.466093,-0.867737l0,0l0.377299,-0.242946l0,-0.347095l0,-0.485993l0,0l-0.532663,-1.180082l-0.532764,0.832987l-0.532663,0.347095l-0.710251,0l-0.532663,0l-0.710251,-0.347095l-0.532764,-0.242946l-0.754598,0l-0.532764,0l-0.532663,0.833088z" id="path50"/>
      <path stroke="null" fill="#607d8b" fill-rule="evenodd" d="m108.153257,117.205603l0.865616,1.700825l0.910063,1.665974l0.932186,1.423028l0,0l0.310729,-0.242946l0.377299,-0.347095l0.532764,0l0,0l0.554887,0.867737l0.688028,0.312345l0.754598,0.277696l0,0l-0.754598,-1.457778l-1.242914,-0.832987l-1.220792,-0.832987l0,0l-0.221935,0l-0.332952,0.347095l-0.199812,-0.347095l0,0l0.199812,-0.242946l0.177588,-0.277696l0.377299,-0.312345l0,0l0.532663,0.312345l0.310729,0.277696l0.754699,0.242946l0,0l-0.532764,-1.353629l-0.754598,-0.590041l-0.865616,-0.590142l0,0l-0.754699,0l-0.688028,0l-0.710251,0z" id="path52"/>
      <path stroke="null" fill="#607d8b" fill-rule="evenodd" d="m134.654792,120.572402l-0.199711,0l0.909962,1.700724l0.688129,1.666075l1.309485,0.832987l0,0l1.065427,0.347095l1.08755,0l0.821269,-0.832987l0,0l-0.288505,-0.833088l-0.244158,-0.347095l-0.155364,-0.832987l0,0l-0.3774,0l-0.554887,0.312345l-0.288505,-0.312345l0,0l0.532663,-0.867737l0.310729,-0.242946l-0.177487,-0.832987l0,0l0,0.242946l0,0.347095l-0.133242,0l0,0l-0.532663,-0.590041l0.133141,-0.242946l0,-0.347095l0,-0.242946l0,0l-0.133141,0l-0.244158,0l0,-0.277696l0,0l-1.043204,0.867737l-1.242914,0.242946l-1.243015,0.242946z" id="path54"/>
      <path stroke="null" fill="#607d8b" fill-rule="evenodd" d="m123.201876,122.273126l0.532663,0l0.332952,-0.277696l0.377299,0l0,0l-0.710251,1.110683l-1.065326,0l-1.087651,-0.242946l0,0l0.554887,1.076034l0.532764,1.180082l0.532663,1.110683l0,0l1.398279,-0.867737l1.287362,-0.832987l1.39838,-0.590041l0,0l-0.532764,-1.943771l-1.065326,-1.075933l-1.243015,-0.590041l-1.242914,-0.590041l0,0l-0.754598,0.832987l-0.865717,-0.242946l-0.887839,-0.590041l-0.932186,-0.242946l0,0l0.932186,1.665974l1.220792,0.590041l1.287362,0.520642z" id="path56"/>
      <path stroke="null" fill="#607d8b" fill-rule="evenodd" d="m127.663196,121.405389l0.532663,1.180082l0.554887,1.110683l0.532764,1.076034l0,0l1.065326,0l0.932287,0l1.02098,0.347095l0,0l0.199711,0.242946l0,0l0,0.277696l0,0l-0.377299,0.312345l-0.532663,-0.312345l-0.310729,-0.277696l0,0l-0.3774,0.277696l-0.554887,0.312345l-0.377299,-0.312345l0,0l0,0.832987l0.377299,0.590041l0.554887,0.590041l0,0l1.39838,-0.381744l1.442726,0l1.242914,0.381744l1.442726,-0.381744l0,0l-0.910063,-1.909021l-2.685641,-1.075933l-2.48593,-1.700825l-2.685641,-1.180082z" id="path58"/>
      <path stroke="null" fill="#607d8b" fill-rule="evenodd" d="m114.945142,122.273126l0.754598,1.423028l0.688129,1.076034l1.08755,0.867737l1.065427,0.590041l1.08755,0.242946l1.065326,0.590041l1.220792,0.208297l1.065427,0.62469l0,0l-0.532663,-0.832987l-0.532764,-0.832987l-0.532663,-0.590041l0,0l-1.08755,0l-1.065427,-0.520642l-0.865616,-0.832987l0,0l0.532663,0l0.332952,0.242946l0.532663,0.242946l0,0l0.399523,0l0.532663,0l0.554988,-0.242946l0,0l-0.421746,-0.590041l-0.532663,-0.833088l-0.31083,-0.832987l0,0l-0.754598,0.312345l-0.688028,0l-0.710352,-0.312345l-0.732374,-0.277696l-0.710251,-0.242946l-0.688129,0l-0.754598,0.520642z" id="path60"/>
      <path stroke="null" fill="#607d8b" fill-rule="evenodd" d="m111.17185,122.273126l0.754598,1.180082l0.710352,0.485993l0.909962,0.590041l0,0l-0.221935,0.242946l-0.155364,0l-0.155364,0l0,0l0.688028,1.180082l1.087651,-0.312345l1.065326,0.590041l0,0l-0.909962,-1.700724l-1.620314,-1.076034l-1.39838,-1.180082l0,0l-0.754598,0z" id="path62"/>
      <path stroke="null" fill="#607d8b" fill-rule="evenodd" d="m140.181538,123.106113l0,0l0,0l0,0.347095l0,0l0.155364,0l0,-0.347095l0,0l-0.155364,0z" id="path64"/>
      <path stroke="null" fill="#607d8b" fill-rule="evenodd" d="m141.113724,125.362229l-0.399523,0l-0.377299,0.277696l-0.288505,0.590041l0,0l-1.087651,-0.277696l-1.065326,0l-0.910063,0l0,0l0.377299,0.520642l0.133242,0.347095l0.399523,0.451243l0,0l0.821168,0l1.087651,0.381744l1.065326,-0.381744l0,0l0,0.62469l-0.155364,0.208297l-0.377299,0.381744l0,0l-0.688028,0l-0.554887,0l-0.665905,-0.381744l0,0l0.843392,1.492427l1.309586,0.208297l1.220792,-0.208297l0,0l0.532663,-0.277595l0.688028,-0.590041l0.3774,-0.624791l0,0l0,-0.208297l-0.3774,0l-0.155364,0l-0.377299,0l0,0l0,-0.242946l0,0l0.221935,-0.381744l0,0l0.155364,0l-0.155364,-0.208297l-0.377299,-0.590041l-0.155364,-0.520642l0,0l-0.221935,0.277696l0.221935,0l0,0l0,0.590041l0,0l-0.221935,0.242946l-0.155364,-0.242946l0,-0.347095l-0.177588,-0.242946l0,0l0.177588,-0.277696l0,-0.312345l-0.177588,-0.277696l0,0l-0.199812,0l-0.177487,-0.242946l-0.133242,0.242946z" id="path66"/>
      <path stroke="null" fill="#607d8b" fill-rule="evenodd" d="m123.912127,127.27125l0.532663,0.832987l0.3774,0.832987l0.688028,0.65944l0,0l1.775679,0.208297l1.620213,-0.208297l1.620314,0.208297l0,0l-0.177588,-0.485892l-0.155364,-0.381845l-0.377299,-0.451243l0,0l-0.688028,-0.381744l-0.754699,-0.451243l-0.710251,-0.381744l0,0l-0.532663,0.381744l-0.3774,0.242946l-0.532663,-0.242946l0,0l0.199812,-0.381744l0.554887,-0.208297l0.310729,-0.242946l0,0l0.532663,0l0.554887,0.242946l0.532663,0l0,0l-0.155364,-0.832987l-0.377299,-0.867737l-0.554887,-0.242946l0,0l-1.398279,0.242946l-1.287362,1.110683l-1.220792,0.798338z" id="path68"/>
      <path stroke="null" fill="#607d8b" fill-rule="evenodd" d="m114.61219,126.820007l0.554887,0.451243l0.532663,0.381744l0.532663,0.832987l0,0l0.51054,0l0.532663,0.243047l0.554887,0.208196l0,0l-0.355075,0.65944l0.688028,0.590142l0.732475,0.451142l0.732475,0.624791l0,0l-0.95441,-1.075933l-0.665905,-1.249582l-0.732475,-0.832987l-0.887738,-1.041284l-0.910063,-0.242946l-0.865616,0z" id="path70"/>
      <path stroke="null" fill="#607d8b" fill-rule="evenodd" d="m117.830494,126.820007l0.177588,0.832987l0.532764,0.242946l0.133141,0.833088l0,0l0.754598,-0.243047l0.554887,0l0.532764,0.243047l0,0l0.310729,0.208196l-1.198568,0.65944l0.355075,0.590142l0.31083,0.242946l0.399422,0.590041l0,0l0.688129,-0.832987l0.932186,0.242946l0.887839,0l0,0l0.532663,0.590041l0.532764,0.242946l0.710251,-0.242946l0,0l-0.3774,-0.590041l-0.332851,-0.624791l-0.355176,-0.485892l0,0l-1.997613,-0.833088l-1.931043,-0.832987l-2.152978,-0.832987z" id="path72"/>
      <path stroke="null" fill="#607d8b" fill-rule="evenodd" d="m134.654792,128.104237l-1.287261,-0.208297l-1.065427,0l-1.02098,0.833088l0,0l0.843392,1.457778l1.08755,0.832987l1.243015,0.451243l1.287362,0.381744l1.242914,0l1.198568,0.242946l1.331709,0.208297l0,0l-0.421645,-1.28423l-0.532764,-0.590041l-0.665804,-0.242946l-0.910063,0l-0.932186,0l-0.843493,0l-0.754598,-0.381845l0,0l1.065326,0l1.087651,-0.208297l0.754598,-1.110683l0,0l-0.377299,-0.590041l-0.554887,-0.242946l-0.532663,0.451243l0,0l-0.3774,0.381744l-0.532663,0l-0.332952,-0.381744z" id="path74"/>
      <path stroke="null" fill="#607d8b" fill-rule="evenodd" d="m140.336903,131.262739l0.910063,1.041284l1.242914,0.65944l1.287362,0.208297l1.242914,0l1.442726,0l0,0l0,-0.208297l0.177588,-0.65944l0,-0.208297l0,0l-0.177588,0l-0.199711,-0.242946l-0.155364,-0.381744l0,0l-0.3774,0l0,0.381744l-0.177487,0l0,0l0,-0.381744l0.177487,-0.208297l-0.177487,-0.242946l0,0l-0.3774,0.242946l-0.532663,0.208297l-0.532663,0l0,0l0.221935,-0.451243l0.310729,-0.381845l0,-0.832987l0,0l-0.155364,0.381845l0,0l-0.155364,0.242946l0,0l-0.221935,-0.242946l0.377299,-0.590142l-1.46495,0.208297l-1.220691,0.832987l-1.46495,0.624791z" id="path76"/>
      <path stroke="null" fill="#607d8b" fill-rule="evenodd" d="m127.81856,130.637948l-1.931043,-0.451142l1.087651,1.075933l1.220691,0.590041l1.243015,0.242946l0,0l0.377299,0l0,-0.62469l0.155364,-0.208297l0,0l0,0.208297l0,0l0,0.381744l0,0l0.221935,-0.381744l0.155364,0l0,0.381744l0,0.242946l0,0l-0.909962,0.555392l-1.065427,-0.347095l-1.08755,0l0,0l0.532663,0.65944l0.554887,0.520642l0.377299,0.312345l0,0l1.220792,-0.62469l1.309586,-0.208297l1.02098,-0.65944l0,0l-0.332952,-0.451243l-0.377299,-0.381744l-0.310729,-0.451243l0,0l-1.309586,-0.381845l-1.065427,-0.451142l-1.08755,0.451142z" id="path78"/>
      <path stroke="null" fill="#607d8b" fill-rule="evenodd" d="m121.24871,131.019793l0.887738,1.28423l1.065427,0.65944l1.398279,0.208297l1.442726,0.312345l1.243015,0.520642l0,0l-0.688129,-0.832987l-0.377299,-0.867737l-0.710251,-0.451243l0,0l-1.442726,0l-1.220792,-0.590041l-1.59799,-0.242946z" id="path80"/>
      <path stroke="null" fill="#607d8b" fill-rule="evenodd" d="m133.367531,132.095726l0.532663,0.867737l0.754598,0.520642l0.865616,0l0,0l0.754699,-0.312345l0.710251,0l0.688028,0.312345l0,0l-0.688028,0l-0.932186,0l-0.843493,0.520642l0,0l0.532764,0.624791l0.532663,0.555291l0.532663,-0.347095l0,0l1.087651,-0.485892l1.198568,0.277696l1.08755,0l0.932186,-0.277696l0,0l-1.065326,-1.180082l-1.33181,-0.208297l-1.220691,-0.312345l0,0l-1.220792,-0.347095l-1.442726,0l-1.464849,-0.208297z" id="path82"/>
      <path stroke="null" fill="#607d8b" fill-rule="evenodd" d="m142.334516,133.79645l0.532663,0.555392l0.710251,0.277696l0.754699,-0.277696l0,0l0.688028,0.277696l0.910063,0l0.710251,0l0,0l0,0.208196l-0.177588,0l-0.199711,0l0,0l-0.865616,0.347095l-0.910063,-0.347095l-0.532663,0.347095l0,0l0.377299,0.485892l0.688028,0l0.532764,0l0,0l-0.155364,0.347095l-0.222036,0l-0.155364,0l0,0l0.155364,0l0,0.520642l1.287362,0l1.087651,-0.208196l1.242914,-0.659541l0,0l0.377299,0.347095l0.532764,0l0.310729,-0.347095l0,0l0.221935,0l0,-0.208196l0,0l0,0l-0.532663,0l-0.3774,-0.277696l-0.377299,-0.347095l0,0l0,-0.208196l-0.332952,0.555291l-0.199711,0l-0.532764,0.277696l-0.332851,-0.277696l0,0l0.688028,-0.555291l-0.155364,0l-0.199812,-0.277696l-0.177487,-0.347095l0,0l0.177487,-0.208297l0.199812,0.208297l0.332952,0.347095l0.199711,0.277696l0,0l-0.377299,-0.624791l-0.355176,-0.520642l-0.554887,-0.312345l0,0l-1.598091,0.62469l-1.620213,0l-1.775679,0z" id="path84"/>
      <path stroke="null" fill="#607d8b" fill-rule="evenodd" d="m129.28351,134.004747l-0.155364,0.347095l1.065326,0.485892l0.865616,0.347095l1.065427,0l0,0l0.177588,0.277696l0,0l0.199711,0l0,0l-0.377299,-0.832987l0.554887,0l0.377299,-0.277696l0.532764,0l0,0l-0.532764,-0.867737l-0.932186,-0.312345l-0.843392,0.312345l0,0l-0.754699,0.312345l-0.554887,0.208297l-0.688028,0z" id="path86"/>
      <path stroke="null" fill="#607d8b" fill-rule="evenodd" d="m132.679402,135.462525l0.377299,0l0,0.208196l0.532764,-0.208196l0.532663,0l0.332952,0l0,0l-0.332952,-0.832987l-0.754598,0.208196l-0.688129,0.624791z" id="path88"/>
      <path stroke="null" fill="#607d8b" fill-rule="evenodd" d="m141.113724,135.184829l-0.399523,0.277696l-0.665804,0l-0.532764,-0.277696l0,0l-0.95441,0l-0.665804,0l-0.910063,0.485892l0,0l0.377299,0.347095l0.532764,0.312446l0.288505,0.208196l0,0l0,-0.208196l0.532663,-0.312446l0.554887,0l0.3774,0.312446l0,0l-1.087651,0.208196l1.243015,0l1.820025,0.312446l1.620314,0l0,0l-0.3774,-0.312446l0,-0.208196l0.155364,0l0,0l0,0l-0.310729,-0.312446l0,0.312446l0.155364,0l0,0.208196l0,0l-0.688028,-0.208196l-0.554887,0.208196l-0.910063,-0.208196l0,0l0.532764,0l-0.133242,0l-0.244158,0l-0.155364,-0.312446l0,0l0,-0.347095l0.532764,0l0.554887,0.347095l0.532663,-0.347095l0,0l-0.155364,-0.485892l-0.554887,-0.347095l-0.51054,0.347095z" id="path90"/>
      <path stroke="null" fill="#607d8b" fill-rule="evenodd" d="m150.768838,136.850904l-0.199711,-0.312446l0,-0.208196l0,-0.312446l0,0l-0.332952,0.520642l-0.377299,-0.208196l-0.532764,0.208196l-0.710251,0l0,0l-1.442726,0.312446l0.3774,0.312345l3.551256,-0.312345l-0.155364,-0.833088l-0.177588,0.833088z" id="path92"/>
      <path stroke="null" fill="#607d8b" fill-rule="evenodd" d="m146.462883,136.850904l0,-0.312446l-0.532663,0l0,0.312446l0.532663,0z" id="path94"/>
      <path stroke="null" fill="#607d8b" fill-rule="evenodd" d="m136.608058,105.439332l-0.177588,0l0,0l-0.155364,0l0,0l0.332952,0.624791l0,-0.277696l0.377299,0.485892l-0.177588,0.347095l-0.377299,-0.347095l-0.155364,0.347095l0,0l0.155364,0l0,0.485993l0,0l0,0l0.554887,0l0,0.347095l-0.177588,0.277595l-0.199711,0l0,0l-0.177588,0l0,0.555392l0.554887,0l0,-0.312446l0,0l0.155364,-0.242946l0,0l0.887839,-0.62469l0.688028,-1.041284l0.799045,-0.832987l0,0l-0.95441,0l-0.887839,-0.312446l-0.865616,0.312446l0,0l-0.199711,0.208196z" id="path96"/>
      <path stroke="null" fill="#607d8b" fill-rule="evenodd" d="m138.183925,107.973043l-0.155364,0.624791l-0.133141,0l-0.222036,0.520642l0,0l-0.310729,0.312345l0.310729,0.555392l0,0.832987l0.51054,0.520642l0,0l-0.51054,0.312345l0,0l0.222036,0l0,0.312446l0,0l-0.222036,0.208196l-0.310729,0.312446l0.133242,0.277595l0,0l0,-0.277595l0.177487,0l0.355176,-0.312446l0,0l0.399523,-0.520642l0.288505,-0.555291l0.554887,-0.624791l0,0l0.776923,-0.832987l0.532663,-1.353629l0.532663,-1.180082l0,0l-0.244158,-0.833088l-0.288505,-0.832987l-0.399523,-0.208196l0,0l-0.532663,0.832987l-0.688129,1.041284l-0.776822,0.867636z" id="path98"/>
      <path stroke="null" fill="#607d8b" fill-rule="evenodd" d="m141.424453,105.231136l0.754699,3.366698l1.065427,3.054353l1.242914,3.019704l0,0l0.155364,0l-0.310729,-1.31898l-0.554887,-1.388278l-0.377299,-1.492528l0,0l-0.3774,-0.485892l-0.155364,-0.867737l-0.377299,-0.520642l0,0l0,-1.145332l0,0.277595l-0.310729,-0.832987l-0.221935,-1.110683l-0.532764,-0.555291z" id="path100"/>
      <path stroke="null" fill="#607d8b" fill-rule="evenodd" d="m138.183925,113.352911l0,0.243047l0,0.242946l0.244158,0l0,0l0,0l-0.244158,0.590041l0.377299,0l0.155364,-0.242946l0.244158,-0.347095l0,0l0,0.590041l-0.244158,0.242946l-0.155364,0.590041l0,0l0.155364,0l0.3774,0l0.177487,0l0,0l-0.310729,0.590041l0,0.520642l0,0.832987l0,0l0,-0.242946l0.133242,-0.590041l0.177487,-0.242946l0,0l0.244158,0l0,0.832987l0.288606,-0.832987l-0.155364,0l-0.133242,-0.277696l-0.244158,0l0,0l0,-0.312345l0.3774,0l0.155364,0l0.244158,0.312345l0,0l2.441482,-3.88734l-1.065427,-3.366799l-0.843392,1.041284l-0.932186,1.180082l-0.688129,1.353629l-0.776822,1.180082z" id="path102"/>
      <path stroke="null" fill="#607d8b" fill-rule="evenodd" d="m140.181538,117.795744l0,0.242946l-0.133141,0.347095l-0.244158,0.520642l0,0l0.377299,0l0,-0.277696l0,0l0.155364,-0.242946l0,0l0.244158,0l0.133141,0l0,0.242946l0,0l-0.133141,0.277696l-0.244158,0l0,0.590041l0,0l0.377299,0.242946l0.399523,-0.242946l0.133242,0.590041l0,0l-0.133242,0l-0.399523,0.242946l0,0.242946l0,0l0.910063,-0.832987l0.865616,-1.110683l0.754699,-1.666075l0.710251,-1.423028l0,0l-1.087651,-2.533711l-0.909962,1.423028l-0.843493,1.700724l-0.932186,1.666075z" id="path104"/>
      <path stroke="null" fill="#607d8b" fill-rule="evenodd" d="m145.552921,117.205603l0,0.347095l0.177487,-0.347095l0,-0.242946l0,-0.242946l0,0l-0.332851,-0.590041l-0.222036,0.242946l0.222036,0.590041l0.155364,0.242946z" id="path106"/>
      <path stroke="null" fill="#607d8b" fill-rule="evenodd" d="m141.801853,122.273126l-0.177588,0l-0.199812,0l-0.177487,-0.277696l0,0l0,-0.242946l0.177487,0l0,0l0,0l0,-0.347095l-0.310729,0l0.133242,0.590041l0.177487,0.277696l0.3774,0.312345l0,0l0,0l0.155364,0.520642l0,0l0.221935,0l0,0l0,0l0,-0.242946l-0.221935,-0.277696l0,-0.312345l0,0l0.377299,0l0.155364,0.590041l0,0.242946l0,0l0,0.590041l0.221935,0l0,0l0,-0.242946l0,0l0.532764,-0.347095l0.710251,-1.353629l0.688028,-1.665974l0.377299,-1.700724l0,0l-0.688028,-2.01317l-0.754699,1.666075l-0.865616,1.180082l-0.532663,1.353629l-0.377299,1.700724z" id="path108"/>
      <path stroke="null" fill="#607d8b" fill-rule="evenodd" d="m145.552921,119.739415l-0.688129,1.665974l-0.754598,1.457778l-0.865616,1.909021l0,0l0,0l0.155364,0l0,0.347095l0,0l-0.155364,0.242946l-0.222036,-0.242946l0,0l0,0l0,0l0.222036,0.832987l0.332851,0l0.199812,-0.312345l0.332952,0.312345l0,0l-0.332952,-0.312345l0.177588,-0.277696l0.377299,0.590041l0,0.520642l-0.221935,0.798338l0,0l0.754598,-0.451243l0.532764,-0.867737l0.532663,-0.590041l0,0l-0.199812,0l0.532764,-1.423028l0.532663,-1.076034l0,-1.457778l0,0l-0.332952,-0.485892l-0.355075,-0.832987l-0.554887,-0.347095z" id="path110"/>
      <path stroke="null" fill="#607d8b" fill-rule="evenodd" d="m145.175521,127.89594l0.222036,0l0.155364,0.590041l0,0.243047l0,0l0.177487,0l0.199812,0l0.332952,0l0,0l-0.155364,0.208196l-0.3774,0l0,0.381845l0,0l0.3774,0l0,0.277595l0.355075,0l0.865616,-1.700724l0.754699,-1.665974l0.532663,-1.700724l0,0l-0.377299,-0.833088l-0.355176,-0.590041l-0.332851,-0.520642l0,0l-0.754699,1.700825l-0.688028,1.94367l-0.932287,1.665974z" id="path112"/>
      <path stroke="null" fill="#607d8b" fill-rule="evenodd" d="m148.948813,125.119283l-0.532663,1.94367l-0.710251,1.666075l-0.910063,1.700724l0,0l0.377299,0.832987l0,0l0,0l0.155364,0l0,0l0.222036,0.208297l0.155364,-0.208297l0.177487,0.832987l0,-0.242946l0,-0.381744l0,0l0,0l0.910063,-0.833088l0.688028,-1.318879l0.532764,-1.423129l0,0l0.377299,-1.075933l-0.532663,-0.590041l-0.532764,-1.110683l0,0l-0.377299,0z" id="path114"/>
      <path stroke="null" fill="#607d8b" fill-rule="evenodd" d="m143.57743,126.472912l0.199812,0l0,0l0,0.347095l0,0l0.177588,0l0,-0.347095l-0.3774,0z" id="path116"/>
      <path stroke="null" fill="#607d8b" fill-rule="evenodd" d="m163.264957,128.729028l0,-1.666075l-0.155364,1.666075l0.155364,0z" id="path118"/>
      <path stroke="null" fill="#607d8b" fill-rule="evenodd" d="m149.858876,130.186806l-0.3774,0.832987l-0.310729,1.075933l-0.554887,0.867737l0,0l0.177588,-0.312345l0.155364,0.520642l0.532663,-0.208297l0,0.520642l0,0l-0.155364,0l0.532764,-0.312345l0,0.312345l1.08755,-1.180082l0.688028,-1.874271l0.754699,-1.943771l0,0l-0.377299,-0.590041l-0.532764,-0.242946l-0.532663,-0.381744l0,0l-1.08755,2.915556z" id="path120"/>
      <path stroke="null" fill="#607d8b" fill-rule="evenodd" d="m152.544517,129.804961l-0.532663,1.666075l-0.532764,1.492427l-0.710251,1.388379l0,0l0.554887,0.277696l0,-0.624791l0.310729,0l0.3774,-0.208297l0,0l1.620213,-4.859226l-0.532663,-0.451243l-0.377299,0.451243l-0.177588,0.867737z" id="path122"/>
      <path stroke="null" fill="#607d8b" fill-rule="evenodd" d="m152.544517,134.629538l0.554887,0.555291l0.688028,-1.700724l0.532764,-2.013069l0.554887,-1.874372l0,0l-0.865616,-0.65944l-0.3774,2.082569l-0.532663,1.94367l-0.554887,1.666075z" id="path124"/>
      <path stroke="null" fill="#607d8b" fill-rule="evenodd" d="m160.202018,131.471036l0.221935,-0.451243l0,-0.832987l0,-0.867737l0,0l0,0.867737l-0.221935,0.451142l0,0.833088z" id="path126"/>
      <path stroke="null" fill="#607d8b" fill-rule="evenodd" d="m158.581703,133.17176l0.532764,-3.575096l-0.155465,1.041284l-0.133141,1.214832l-0.244158,1.31898z" id="path128"/>
      <path stroke="null" fill="#607d8b" fill-rule="evenodd" d="m155.252381,129.804961l-0.377299,2.047819l-0.554887,1.94367l-0.532764,1.666075l0,0l0.3774,-0.277696l0.155364,-0.347095l0.377299,0l0,0l0.554887,-1.353629l0.377299,-2.013069l0.133242,-1.666075l0,0l-0.51054,0z" id="path130"/>
      <path stroke="null" fill="#607d8b" fill-rule="evenodd" d="m155.62968,134.004747l0.532764,-1.041284l0.288505,-1.492427l0.244158,-1.666075l0,0l-0.244158,1.457778l-0.288505,1.388379l-0.532764,1.353629z" id="path132"/>
      <path stroke="null" fill="#607d8b" fill-rule="evenodd" d="m151.634454,134.629538l0,0.208196l0.3774,0l0,-0.208196l-0.155364,-0.277696l-0.222036,0.277696z" id="path134"/>
      <path stroke="null" fill="#607d8b" fill-rule="evenodd" d="m147.883386,105.786427l-0.710251,-0.347095l-0.710251,0l-0.732475,0l0,0l-0.177487,0.624791l0,0.208196l-0.155364,0.624791l0,0l0,-0.624791l0,-0.485892l0,-0.347095l0,0l-0.532764,0l0.532764,2.290765l-0.532764,-0.62469l-0.221935,-0.833088l-0.155364,-0.832987l0,0l-0.532663,1.180082l-0.3774,1.110683l0.532764,0.867737l0,0l0.532663,0l0.377299,-0.624791l0.3774,0l0,0l0,0.624791l0,0l0.155364,0l0,0.208297l0,0l-0.532764,0l-0.377299,0.312345l-0.532663,-0.312345l0,0l0.221935,0.62469l0.155364,0.555392l0,0.485892l0,0l0.155364,-0.485892l0.377299,0l0.3774,-0.347095l0,0l-0.222036,0.832987l0.3774,0.347095l0.554887,0l0.355075,0l0,0l0.332952,0.277696l0.221935,0.867737l0,0.520642l0,0l-0.754598,-0.520642l-0.710251,-0.867737l-0.688129,-0.277696l0,0l0.155364,0.520642l0.710251,0.312345l0.532764,0.833088l0,0l0.754598,0.520642l0.688129,0l0.532663,0.590041l0,0l0.554887,-1.110683l-0.177588,0l-0.199711,0.277595l0,0.243047l0,0l-0.177588,-0.243047l-0.355176,0l-0.177487,0l0,0l0.177487,-0.277595l0.199812,-0.312446l0,-0.208196l0,0l-0.377299,-0.312446l0.177487,-0.312345l0,-0.242946l0,0l0.199812,0.555291l0.532663,0l0.554887,0l0,0l0,-0.312345l0.155364,0l0,0l0,0l0,0l0.3774,-0.520642l0.310729,-0.347095l-0.155364,-0.485892l0,0l0.377299,-0.347095l0,-0.208297l0,-0.62469l0,0l-0.221935,0l-0.155364,-0.208297l-0.155364,-0.312345l0,0l0,-0.555392l-0.222036,0.242946l0,0.312446l-0.310729,0l0,0l0.155364,-0.555392l0.155364,-0.62469l0.3774,-0.208297l0,0l0.155364,0l0,0.208297l-0.155364,0.347095l0,0l0.532663,0.832987l0.177588,-0.312446l0.199711,0.312446l0,0.312345l0,0.208297l0,0l0.177588,0l0,-0.208297l0,0l0,0l0,-0.624791l-0.177588,-0.242946l0,-0.62469l0,0l0,-0.485993l-0.199711,0l-0.332952,-0.347095l-0.221935,0.347095l0,0l0,-0.555291l-0.155364,-0.277696l-0.155364,0l0,0l0,0.485892l-0.3774,0.833088l-0.155364,0.347095l0,0l0,-0.555392l0.155364,-0.624791l0.155364,-0.832987l0,0l-0.310729,0l0,0.347095l0,0l-0.221935,0.277696l0,0l0,-0.277696l0,0l0,-0.347095l0,0l-0.532663,0l-0.332952,0l-0.199812,0.347095z" id="path136"/>
      <path stroke="null" fill="#607d8b" fill-rule="evenodd" d="m143.57743,106.064123l0,0l0.3774,0l0,-0.624791l0,0l-0.177588,0l-0.199812,0.347095l0,0.277696z" id="path138"/>
      <path stroke="null" fill="#607d8b" fill-rule="evenodd" d="m156.162445,105.231136l1.198568,1.665974l1.220691,1.075933l1.46495,0.624791l1.442726,0.208297l1.620213,-0.208297l1.39838,-0.624791l0,0l1.065326,-0.867636l0.754699,-1.041284l0.554887,-0.832987l0,0l-10.72044,0z" id="path140"/>
      <path stroke="null" fill="#607d8b" fill-rule="evenodd" d="m150.946426,105.439332l0.532663,0.624791l0.532764,0.555291l0.377299,0.485993l0,0l-0.532663,0.347095l0.532663,0.520541l0.155364,-0.520541l0.177588,-0.555392l0.377299,-0.624791l0,0l-0.177588,0l0,0l-0.199711,0.347095l0,0l0,-0.832987l-0.332952,0l-0.377299,0.277696l-0.3774,0l0,0l0,-0.624791l-0.688028,0z" id="path142"/>
      <path stroke="null" fill="#607d8b" fill-rule="evenodd" d="m151.479089,108.597834l0,-0.624791l0,-0.520541l0,-0.555392l0,0l-0.155364,0.555392l0,0.520541l0.155364,0.624791z" id="path144"/>
      <path stroke="null" fill="#607d8b" fill-rule="evenodd" d="m152.921816,107.973043l0.177588,0.312446l0.155364,-0.555392l-0.155364,0l0,0.242946l-0.177588,0z" id="path146"/>
      <path stroke="null" fill="#607d8b" fill-rule="evenodd" d="m155.252381,108.597834l0,0l0,0.208297l0.155364,0l0,0l-0.155364,-0.520642l0,0.312345z" id="path148"/>
      <path stroke="null" fill="#607d8b" fill-rule="evenodd" d="m157.5385,109.639118l0,-0.208297l-0.177487,-0.62469l-0.3774,-0.208297l0,0l0.554887,1.041284z" id="path150"/>
      <path stroke="null" fill="#607d8b" fill-rule="evenodd" d="m156.828248,109.430821l-0.133141,-0.832987l0,0.520642l0.133141,0.312345z" id="path152"/>
      <path stroke="null" fill="#607d8b" fill-rule="evenodd" d="m151.323725,109.430821l0,0.208297l0,0.347095l0.155364,0l0,0l0,-0.555392l-0.155364,0z" id="path154"/>
      <path stroke="null" fill="#607d8b" fill-rule="evenodd" d="m150.236175,111.964633l0.155364,-0.312446l-0.155364,-0.312345l-0.221935,-0.242946l0,0l0,0.242946l0,0.312345l0.221935,0.312446z" id="path156"/>
      <path stroke="null" fill="#607d8b" fill-rule="evenodd" d="m145.93022,113.005917l0.177588,-0.243047l0.155364,0.833088l0.199711,0.832987l0.332952,0.590041l0,0l-0.155364,-1.423028l-0.710251,-1.110683l-0.754699,-0.520642l0,0l0,0.208196l0.3774,0.590041l0.377299,0.243047z" id="path158"/>
      <path stroke="null" fill="#607d8b" fill-rule="evenodd" d="m148.948813,113.595958l0,0.242946l0.377299,-0.242946l-0.155364,0l0,0l-0.221935,0z" id="path160"/>
      <path stroke="null" fill="#607d8b" fill-rule="evenodd" d="m147.705899,115.261932l-0.155364,-0.590041l0,0.590041l0.155364,0z" id="path162"/>
     </g>
     <g stroke="null" id="Layer1004">
      <path stroke="null" fill="#607d8b" fill-rule="evenodd" d="m108.330845,74.04766l0,-1.180082l0.377299,-0.833088l0.532663,0l0,0l1.065427,0.555392l0.865616,-0.555392l0.910063,-0.485892l0,0l0,-0.624791l-1.065427,0.277696l-0.910063,0l-0.865616,-0.520642l0,0l0.155364,-0.832987l0.155364,-0.624791l0.221935,-0.832987l0,0l0.710352,0.832987l0.688028,0.312446l0.532663,0l0.754699,-0.312446l0.554887,-0.555291l0.688028,-0.277696l0.710251,0l0.532764,0.624791l0,0l0.532663,0l-0.532663,1.665974l-0.710251,1.076034l-1.065427,0.832987l-1.08755,0.624791l-1.065427,0.832987l0,0l-1.08755,0l-0.688129,0l-0.909962,0z" id="path165"/>
      <path stroke="null" fill="#607d8b" fill-rule="evenodd" d="m103.847302,73.214673l1.08755,0.208196l1.243015,0.312446l1.065326,0l0,0l-1.065326,0.312345l-1.243015,0l-1.287362,0l0,0l0.199812,-0.832987z" id="path167"/>
      <path stroke="null" fill="#607d8b" fill-rule="evenodd" d="m115.167077,73.735316l0.532663,-1.35373l1.243015,-0.832987l1.220691,-0.347095l0,0l0.932287,0.555392l0.887738,-0.208297l0.843493,-0.347095l0.95441,-0.277696l0,0l-0.399523,1.457778l-0.133141,1.35373l-1.087651,0.312345l0,0l-4.993983,-0.312345z" id="path169"/>
      <path stroke="null" fill="#607d8b" fill-rule="evenodd" d="m112.459212,74.04766l0.554887,-0.312345l0.532663,0l0.532663,0l0,0l-0.532663,0.312345l-0.532663,0l-0.554887,0z" id="path171"/>
      <path stroke="null" fill="#607d8b" fill-rule="evenodd" d="m122.314037,73.735316l0.133242,-1.700825l0.754598,-1.110683l0.865616,-0.867636l0,0l4.683254,-2.221366l0.3774,0l0.155364,0.346994l0.377299,0l0,0l-0.910063,3.366799l-0.710251,-0.867737l-0.909962,0l-0.710251,0.520642l-0.910063,0.555392l-0.688028,0.277595l0,0l0,0.347095l0.532663,-0.347095l0.532663,-0.277595l0.532764,0l0,0l1.953166,0.832987l-0.332952,1.145433l-1.065326,0l-1.087651,0l0,0l-3.57348,0z" id="path173"/>
      <path stroke="null" fill="#607d8b" fill-rule="evenodd" d="m129.660809,73.42287l0.155364,-0.555291l0.155364,-0.833088l0.221935,-0.485892l0,0l0.865616,-0.624791l0.688129,0l0.932186,0.624791l0,0l0.688129,0.485892l-0.31083,0.555392l0.31083,0.277696l-1.065427,0.867737l-1.39838,0l-1.242914,-0.312446z" id="path175"/>
      <path stroke="null" fill="#607d8b" fill-rule="evenodd" d="m104.047013,72.034491l0.665905,-1.978319l0.910063,-1.874372l1.620213,0l0,0l0.710251,-0.867636l0.754699,-0.312446l0.688028,-0.312345l0,0l-0.688028,1.700724l-1.087651,0.832987l-1.065326,0.833088l0,0l-0.221935,0l-0.155364,-0.208297l-0.177588,0.208297l0,0l0,0.312345l0.332952,0.555291l0.221935,0.277696l0,0l1.398279,-1.145332l-0.177487,1.145332l-0.688129,0.555392l-0.532663,0.62469l0,0l-2.508154,-0.347095z" id="path177"/>
      <path stroke="null" fill="#607d8b" fill-rule="evenodd" d="m131.747216,69.847874l-1.02098,-0.832987l0.554887,-1.700724l0.466093,-1.423129l1.08755,-0.242946l0,0l0.754699,-0.347095l0.865616,0l0.909962,0l0,0l0,0.867737l0,0.520642l0.532764,0.312345l0,0l-0.155364,0l0,0.312446l0,0.242946l0,0l-0.754699,-0.867737l0,0.624791l0.221935,0.242946l0.310729,0.62469l0,0l-0.310729,-0.346994l-0.377299,0l-0.377299,-0.277696l0,0l0,0.62469l0.199711,0.208297l0,0.624791l0,0l-0.199711,0l-0.177588,0.208196l-0.155364,0.624791l0,0l0,0l0,0.208297l0.155364,0l0,0l0,0l0.177588,-0.208297l0,0l0,-0.312345l0,0l0,0.520642l-0.710251,0.312345l0.155364,0.312345l0.221935,0.242946l0,0.277696l0,0l-0.754598,-0.520642l-0.688129,-0.62469l-0.932186,-0.208297z" id="path179"/>
      <path stroke="null" fill="#607d8b" fill-rule="evenodd" d="m115.855104,71.201503l0.377299,-1.665974l0.865717,-1.145433l1.065326,-0.208297l0,0l0.732475,0l0.532663,0.485993l0.554887,-0.485993l0,0l-0.355075,-0.62469l-0.532663,-0.555392l-0.554887,-0.312345l0,0l-1.598091,0.867737l0.887738,-2.742008l1.797902,0l1.753455,0.485892l1.464849,1.180082l0,0l-0.399422,1.35373l-0.133242,1.180082l-0.732475,0.832987l0,0l-1.065326,0.520642l-1.087651,0.555291l-1.065326,-1.075933l0,0l-0.887839,0.208297l-0.732475,0.62469l-0.887839,0.520642z" id="path181"/>
      <path stroke="null" fill="#607d8b" fill-rule="evenodd" d="m134.83238,69.223083l0.155364,0.312446l0.221935,0.312345l-0.221935,0.208297l0,0l-0.155364,-0.208297l-0.177588,-0.312345l0.177588,-0.312446z" id="path183"/>
      <path stroke="null" fill="#607d8b" fill-rule="evenodd" d="m123.534829,68.667792l0.909962,-3.019704l1.243015,0.520642l1.442726,-0.520642l1.242914,-0.832987l0,0l-0.710251,0l-0.688028,0.242946l-0.754699,0l0,0l-0.532663,-0.242946l-0.710251,-0.347095l0,-0.832987l0,0l0.155364,-0.520642l0.221935,-0.590041l0.332952,-0.242946l0,0l0.532663,0l0.532663,0.520541l0.532764,0.312446l0,0l1.287362,-0.590041l1.398279,0l1.08755,0.867737l0,0l-0.532663,2.256015l-1.953166,1.041284l-1.975491,1.145433l-2.152978,1.180082l0,0l-0.377299,0l-0.155364,-0.347095l-0.377299,0z" id="path185"/>
      <path stroke="null" fill="#607d8b" fill-rule="evenodd" d="m110.106423,67.314163l0.3774,-1.145433l0.532663,-1.110683l1.065427,-0.590041l0,0l1.464849,-1.075933l1.775679,-0.867737l1.620314,-0.833088l0,0l0.688028,0.243047l-0.355176,0.867636l-0.177487,0.833088l-0.355176,1.180082l0,0l-1.043204,-0.347095l-0.909962,-0.242946l-0.932287,0.590041l0,0l-0.155364,0.242946l-0.377299,0.242946l0,0l0,0l0.910063,0l1.08755,0.590041l0.909962,0.590041l0,0l-0.377299,1.076034l-0.532663,0l-0.710251,-0.242946l0,0l-1.065427,-0.312446l-1.08755,0.833088l-1.065427,0.555291l0,0l-0.377299,-0.208297l-0.532663,-0.346994l-0.3774,-0.520642z" id="path187"/>
      <path stroke="null" fill="#607d8b" fill-rule="evenodd" d="m106.000279,66.689372l0.177588,-0.520642l0.155364,-0.520642l0.377299,-0.590041l0,0l0.377299,0.242946l0.155364,0l0.377299,0.347095l0,0l0.332952,-0.832987l-0.332952,-0.347095l-0.377299,0l-0.377299,0l0,0l0.532663,-1.075933l0.754699,-0.590142l1.08755,-0.277595l0.865616,0l0.910063,0l0,0l-1.243015,2.776657l-2.907575,2.01317l-0.865616,-0.624791z" id="path189"/>
      <path stroke="null" fill="#607d8b" fill-rule="evenodd" d="m135.742443,66.16873l0,0l0,-0.277696l0,0l0,0l0.155364,0l0,0.277696l-0.155364,0z" id="path191"/>
      <path stroke="null" fill="#607d8b" fill-rule="evenodd" d="m131.747216,65.300993l0.377299,-0.832987l0.554887,-0.242946l0.155364,-0.590041l0,0l0.377299,-0.833088l0.688129,-0.277595l0.932186,-0.242946l0,0l0.377299,0.242946l0.155364,0l0.3774,0l0,0l0,-0.590041l-0.3774,-0.243047l-0.377299,-0.242946l0,0l-1.931043,0.242946l0.155364,-0.590041l0.3774,-0.832987l0.310729,-0.520642l0,0l1.464849,-0.312345l1.065427,0l1.065427,0.832987l0,0l0,0.347095l-0.133242,0l-0.221935,0.242946l0,0l0,0l0,0.242946l0.221935,0l0.310729,0l0.222036,0.347095l0,0l0,0l-0.222036,0l-0.177487,0.242946l0,0l0,0.243047l0.177487,0l0,0.347095l0,0l-0.310729,-0.347095l-0.377299,0.347095l-0.177588,0.242946l0,0l0,0l0,0.277595l0.177588,0.312446l0,0l-0.177588,0l-0.199711,-0.312446l0,-0.277595l-0.177588,-0.242946l0,0l-0.377299,0.242946l0.221935,0.590041l0.332952,0.520642l0.377299,0.347095l0,0l-0.177588,0.832987l0,-0.347095l-0.754598,0l0,-0.242946l-1.39838,0.242946l-1.442726,0.347095l-1.464849,0.485892z" id="path193"/>
      <path stroke="null" fill="#607d8b" fill-rule="evenodd" d="m118.673986,62.801931l0.554887,-1.94367l1.287362,-0.832987l1.398279,-0.590041l0,0l0.532764,0l0.399422,0.312345l0.133242,0.520642l0,0l0.932186,-0.242946l0.688028,-0.277696l0.754699,-0.312345l0,0l-0.377299,1.180082l-0.532764,1.075933l-0.710251,0.590142l0,0l-0.887839,0.242946l-0.710251,-0.242946l-0.754598,-0.590142l0,0l-0.332952,0.243047l-0.221935,0.590041l0.421746,0.590041l0,0l0.532663,0.277696l0.532663,0.590041l0.532663,0.242946l0,0l0.133242,-0.590041l0.221935,-0.242946l0.332952,0l0,0l0.377299,0l-0.177588,0.590041l-0.199711,0.832987l-0.332952,0.242946l0,0l-1.620314,-0.590041l-1.420503,-0.832987l-1.487073,-0.833088z" id="path195"/>
      <path stroke="null" fill="#607d8b" fill-rule="evenodd" d="m112.081913,62.801931l0.932186,-2.186616l1.398279,0.485892l0.532764,-0.485892l0.754598,-0.347095l0.532663,-0.832987l0,0l-0.909962,0.312345l-0.910063,0.277696l-0.865616,-0.867737l0,0l0.310729,-0.832987l0.554887,-1.076034l0.532764,-0.347095l0,0l0.532663,0.590142l0.532663,0.242946l0.732475,0.347095l0,0l0.887839,-0.833088l0.910063,-0.590041l1.08755,0.833088l0,0l-0.732475,1.665974l-0.887839,0.867737l-1.065326,0.590041l-1.243015,0.485892l0,0l-1.08755,0.833088l-1.287362,0.590041l-1.065427,0.590041l0,0l-0.177487,-0.312446z" id="path197"/>
      <path stroke="null" fill="#607d8b" fill-rule="evenodd" d="m126.220469,60.858261l0.377299,-1.700724l1.220792,-0.832987l1.46495,-0.590041l0,0l1.442726,-0.833088l1.398279,-0.520541l1.46495,-1.180183l0,0l1.065326,-0.242946l-0.532663,1.423129l-0.532663,1.110683l-0.754699,1.423028l0,0l-1.08755,-0.590041l-1.02098,0.242946l-1.065427,0.590041l0,0l-0.221935,0.590041l0.909962,0l0.932287,-0.590041l0.466093,0.867737l0,0l0.377299,0.242946l0,0.347095l0,0.485892l0,0l-0.532663,1.180183l-0.532764,-0.833088l-0.532663,-0.347095l-0.710251,0l-0.532663,0l-0.710251,0.347095l-0.532764,0.242946l-0.754598,0l-0.532764,0l-0.532663,-0.832987z" id="path199"/>
      <path stroke="null" fill="#607d8b" fill-rule="evenodd" d="m108.153257,61.448302l0.865616,-1.700724l0.910063,-1.665974l0.932186,-1.423129l0,0l0.310729,0.242946l0.377299,0.347095l0.532764,0l0,0l0.554887,-0.867636l0.688028,-0.312446l0.754598,-0.277696l0,0l-0.754598,1.457778l-1.242914,0.833088l-1.220792,0.832987l0,0l-0.221935,0l-0.332952,-0.347095l-0.199812,0.347095l0,0l0.199812,0.242946l0.177588,0.277696l0.377299,0.312345l0,0l0.532663,-0.312345l0.310729,-0.277696l0.754699,-0.242946l0,0l-0.532764,1.353629l-0.754598,0.590041l-0.865616,0.590041l0,0l-0.754699,0l-0.688028,0l-0.710251,0z" id="path201"/>
      <path stroke="null" fill="#607d8b" fill-rule="evenodd" d="m134.654792,58.081604l-0.199711,0l0.909962,-1.700724l0.688129,-1.666075l1.309485,-0.832987l0,0l1.065427,-0.347095l1.08755,0l0.821269,0.832987l0,0l-0.288505,0.832987l-0.244158,0.347095l-0.155364,0.833088l0,0l-0.3774,0l-0.554887,-0.312446l-0.288505,0.312446l0,0l0.532663,0.867636l0.310729,0.243047l-0.177487,0.832987l0,0l0,-0.242946l0,-0.347095l-0.133242,0l0,0l-0.532663,0.590041l0.133141,0.242946l0,0.347095l0,0.242946l0,0l-0.133141,0l-0.244158,0l0,0.277696l0,0l-1.043204,-0.867737l-1.242914,-0.242946l-1.243015,-0.242946z" id="path203"/>
      <path stroke="null" fill="#607d8b" fill-rule="evenodd" d="m123.201876,56.38088l0.532663,0l0.332952,0.277595l0.377299,0l0,0l-0.710251,-1.110683l-1.065326,0l-1.087651,0.242946l0,0l0.554887,-1.075933l0.532764,-1.180082l0.532663,-1.110683l0,0l1.398279,0.867737l1.287362,0.832987l1.39838,0.590041l0,0l-0.532764,1.94367l-1.065326,1.076034l-1.243015,0.590041l-1.242914,0.590041l0,0l-0.754598,-0.832987l-0.865717,0.242946l-0.887839,0.590041l-0.932186,0.242946l0,0l0.932186,-1.665974l1.220792,-0.590142l1.287362,-0.520541z" id="path205"/>
      <path stroke="null" fill="#607d8b" fill-rule="evenodd" d="m127.663196,57.248516l0.532663,-1.180082l0.554887,-1.110683l0.532764,-1.075933l0,0l1.065326,0l0.932287,0l1.02098,-0.347095l0,0l0.199711,-0.242946l0,0l0,-0.277696l0,0l-0.377299,-0.312345l-0.532663,0.312345l-0.310729,0.277696l0,0l-0.3774,-0.277696l-0.554887,-0.312345l-0.377299,0.312345l0,0l0,-0.832987l0.377299,-0.590041l0.554887,-0.590142l0,0l1.39838,0.381845l1.442726,0l1.242914,-0.381845l1.442726,0.381845l0,0l-0.910063,1.909021l-2.685641,1.075933l-2.48593,1.700724l-2.685641,1.180082z" id="path207"/>
      <path stroke="null" fill="#607d8b" fill-rule="evenodd" d="m114.945142,56.38088l0.754598,-1.423129l0.688129,-1.075933l1.08755,-0.867737l1.065427,-0.590041l1.08755,-0.242946l1.065326,-0.590041l1.220792,-0.208297l1.065427,-0.624791l0,0l-0.532663,0.833088l-0.532764,0.832987l-0.532663,0.590041l0,0l-1.08755,0l-1.065427,0.520642l-0.865616,0.832987l0,0l0.532663,0l0.332952,-0.242946l0.532663,-0.242946l0,0l0.399523,0l0.532663,0l0.554988,0.242946l0,0l-0.421746,0.590041l-0.532663,0.832987l-0.31083,0.833088l0,0l-0.754598,-0.312446l-0.688028,0l-0.710352,0.312446l-0.732374,0.277595l-0.710251,0.242946l-0.688129,0l-0.754598,-0.520541z" id="path209"/>
      <path stroke="null" fill="#607d8b" fill-rule="evenodd" d="m111.17185,56.38088l0.754598,-1.180183l0.710352,-0.485892l0.909962,-0.590041l0,0l-0.221935,-0.242946l-0.155364,0l-0.155364,0l0,0l0.688028,-1.180082l1.087651,0.312345l1.065326,-0.590041l0,0l-0.909962,1.700724l-1.620314,1.075933l-1.39838,1.180183l0,0l-0.754598,0z" id="path211"/>
      <path stroke="null" fill="#607d8b" fill-rule="evenodd" d="m140.181538,55.547792l0,0l0,0l0,-0.347095l0,0l0.155364,0l0,0.347095l0,0l-0.155364,0z" id="path213"/>
      <path stroke="null" fill="#607d8b" fill-rule="evenodd" d="m141.113724,53.291777l-0.399523,0l-0.377299,-0.277696l-0.288505,-0.590041l0,0l-1.087651,0.277696l-1.065326,0l-0.910063,0l0,0l0.377299,-0.520642l0.133242,-0.347095l0.399523,-0.451243l0,0l0.821168,0l1.087651,-0.381845l1.065326,0.381845l0,0l0,-0.624791l-0.155364,-0.208196l-0.377299,-0.381845l0,0l-0.688028,0l-0.554887,0l-0.665905,0.381845l0,0l0.843392,-1.492528l1.309586,-0.208196l1.220792,0.208196l0,0l0.532663,0.277696l0.688028,0.590041l0.3774,0.624791l0,0l0,0.208196l-0.3774,0l-0.155364,0l-0.377299,0l0,0l0,0.242946l0,0l0.221935,0.381845l0,0l0.155364,0l-0.155364,0.208297l-0.377299,0.590041l-0.155364,0.520642l0,0l-0.221935,-0.277696l0.221935,0l0,0l0,-0.590041l0,0l-0.221935,-0.242946l-0.155364,0.242946l0,0.347095l-0.177588,0.242946l0,0l0.177588,0.277696l0,0.312345l-0.177588,0.277696l0,0l-0.199812,0l-0.177487,0.242946l-0.133242,-0.242946z" id="path215"/>
      <path stroke="null" fill="#607d8b" fill-rule="evenodd" d="m123.912127,51.382756l0.532663,-0.832987l0.3774,-0.832987l0.688028,-0.659541l0,0l1.775679,-0.208196l1.620213,0.208196l1.620314,-0.208196l0,0l-0.177588,0.485892l-0.155364,0.381845l-0.377299,0.451142l0,0l-0.688028,0.381845l-0.754699,0.451142l-0.710251,0.381845l0,0l-0.532663,-0.381845l-0.3774,-0.242946l-0.532663,0.242946l0,0l0.199812,0.381845l0.554887,0.208297l0.310729,0.242946l0,0l0.532663,0l0.554887,-0.242946l0.532663,0l0,0l-0.155364,0.832987l-0.377299,0.867737l-0.554887,0.242946l0,0l-1.398279,-0.242946l-1.287362,-1.110683l-1.220792,-0.798338z" id="path217"/>
      <path stroke="null" fill="#607d8b" fill-rule="evenodd" d="m114.61219,51.833999l0.554887,-0.451243l0.532663,-0.381845l0.532663,-0.832987l0,0l0.51054,0l0.532663,-0.242946l0.554887,-0.208196l0,0l-0.355075,-0.659541l0.688028,-0.590041l0.732475,-0.451243l0.732475,-0.62469l0,0l-0.95441,1.075933l-0.665905,1.249582l-0.732475,0.832987l-0.887738,1.041284l-0.910063,0.242946l-0.865616,0z" id="path219"/>
      <path stroke="null" fill="#607d8b" fill-rule="evenodd" d="m117.830494,51.833999l0.177588,-0.833088l0.532764,-0.242946l0.133141,-0.832987l0,0l0.754598,0.242946l0.554887,0l0.532764,-0.242946l0,0l0.310729,-0.208196l-1.198568,-0.659541l0.355075,-0.590041l0.31083,-0.242946l0.399422,-0.590041l0,0l0.688129,0.832987l0.932186,-0.242946l0.887839,0l0,0l0.532663,-0.590041l0.532764,-0.242946l0.710251,0.242946l0,0l-0.3774,0.590041l-0.332851,0.624791l-0.355176,0.485892l0,0l-1.997613,0.832987l-1.931043,0.832987l-2.152978,0.833088z" id="path221"/>
      <path stroke="null" fill="#607d8b" fill-rule="evenodd" d="m134.654792,50.549768l-1.287261,0.208196l-1.065427,0l-1.02098,-0.832987l0,0l0.843392,-1.457778l1.08755,-0.832987l1.243015,-0.451243l1.287362,-0.381744l1.242914,0l1.198568,-0.243047l1.331709,-0.208196l0,0l-0.421645,1.28423l-0.532764,0.590041l-0.665804,0.242946l-0.910063,0l-0.932186,0l-0.843493,0l-0.754598,0.381845l0,0l1.065326,0l1.087651,0.208196l0.754598,1.110683l0,0l-0.377299,0.590041l-0.554887,0.242946l-0.532663,-0.451142l0,0l-0.3774,-0.381845l-0.532663,0l-0.332952,0.381845z" id="path223"/>
      <path stroke="null" fill="#607d8b" fill-rule="evenodd" d="m140.336903,47.391267l0.910063,-1.041284l1.242914,-0.65944l1.287362,-0.208297l1.242914,0l1.442726,0l0,0l0,0.208297l0.177588,0.65944l0,0.208196l0,0l-0.177588,0l-0.199711,0.243047l-0.155364,0.381744l0,0l-0.3774,0l0,-0.381744l-0.177487,0l0,0l0,0.381744l0.177487,0.208297l-0.177487,0.242946l0,0l-0.3774,-0.242946l-0.532663,-0.208297l-0.532663,0l0,0l0.221935,0.451243l0.310729,0.381744l0,0.833088l0,0l-0.155364,-0.381845l0,0l-0.155364,-0.242946l0,0l-0.221935,0.242946l0.377299,0.590041l-1.46495,-0.208196l-1.220691,-0.833088l-1.46495,-0.62469z" id="path225"/>
      <path stroke="null" fill="#607d8b" fill-rule="evenodd" d="m127.81856,48.015956l-1.931043,0.451243l1.087651,-1.075933l1.220691,-0.590041l1.243015,-0.243047l0,0l0.377299,0l0,0.624791l0.155364,0.208297l0,0l0,-0.208297l0,0l0,-0.381744l0,0l0.221935,0.381744l0.155364,0l0,-0.381744l0,-0.243047l0,0l-0.909962,-0.555291l-1.065427,0.347095l-1.08755,0l0,0l0.532663,-0.65944l0.554887,-0.520642l0.377299,-0.312446l0,0l1.220792,0.624791l1.309586,0.208297l1.02098,0.65944l0,0l-0.332952,0.451243l-0.377299,0.381744l-0.310729,0.451243l0,0l-1.309586,0.381744l-1.065427,0.451243l-1.08755,-0.451243z" id="path227"/>
      <path stroke="null" fill="#607d8b" fill-rule="evenodd" d="m121.24871,47.634213l0.887738,-1.28423l1.065427,-0.65944l1.398279,-0.208297l1.442726,-0.312345l1.243015,-0.520642l0,0l-0.688129,0.832987l-0.377299,0.867737l-0.710251,0.451243l0,0l-1.442726,0l-1.220792,0.590041l-1.59799,0.242946z" id="path229"/>
      <path stroke="null" fill="#607d8b" fill-rule="evenodd" d="m133.367531,46.558179l0.532663,-0.867636l0.754598,-0.520642l0.865616,0l0,0l0.754699,0.312345l0.710251,0l0.688028,-0.312345l0,0l-0.688028,0l-0.932186,0l-0.843493,-0.520642l0,0l0.532764,-0.624791l0.532663,-0.555291l0.532663,0.347095l0,0l1.087651,0.485892l1.198568,-0.277696l1.08755,0l0.932186,0.277696l0,0l-1.065326,1.180082l-1.33181,0.208297l-1.220691,0.312345l0,0l-1.220792,0.347095l-1.442726,0l-1.464849,0.208196z" id="path231"/>
      <path stroke="null" fill="#607d8b" fill-rule="evenodd" d="m142.334516,44.857455l0.532663,-0.555291l0.710251,-0.277696l0.754699,0.277696l0,0l0.688028,-0.277696l0.910063,0l0.710251,0l0,0l0,-0.208196l-0.177588,0l-0.199711,0l0,0l-0.865616,-0.347095l-0.910063,0.347095l-0.532663,-0.347095l0,0l0.377299,-0.485993l0.688028,0l0.532764,0l0,0l-0.155364,-0.347095l-0.222036,0l-0.155364,0l0,0l0.155364,0l0,-0.520642l1.287362,0l1.087651,0.208297l1.242914,0.65944l0,0l0.377299,-0.347095l0.532764,0l0.310729,0.347095l0,0l0.221935,0l0,0.208297l0,0l0,0l-0.532663,0l-0.3774,0.277696l-0.377299,0.347095l0,0l0,0.208196l-0.332952,-0.555291l-0.199711,0l-0.532764,-0.277696l-0.332851,0.277696l0,0l0.688028,0.555291l-0.155364,0l-0.199812,0.277696l-0.177487,0.347095l0,0l0.177487,0.208196l0.199812,-0.208196l0.332952,-0.347095l0.199711,-0.277696l0,0l-0.377299,0.624791l-0.355176,0.520642l-0.554887,0.312345l0,0l-1.598091,-0.624791l-1.620213,0l-1.775679,0z" id="path233"/>
      <path stroke="null" fill="#607d8b" fill-rule="evenodd" d="m129.28351,44.649258l-0.155364,-0.347095l1.065326,-0.485892l0.865616,-0.347095l1.065427,0l0,0l0.177588,-0.277696l0,0l0.199711,0l0,0l-0.377299,0.832987l0.554887,0l0.377299,0.277696l0.532764,0l0,0l-0.532764,0.867737l-0.932186,0.312345l-0.843392,-0.312345l0,0l-0.754699,-0.312446l-0.554887,-0.208196l-0.688028,0z" id="path235"/>
      <path stroke="null" fill="#607d8b" fill-rule="evenodd" d="m132.679402,43.19148l0.377299,0l0,-0.208297l0.532764,0.208297l0.532663,0l0.332952,0l0,0l-0.332952,0.832987l-0.754598,-0.208196l-0.688129,-0.624791z" id="path237"/>
      <path stroke="null" fill="#607d8b" fill-rule="evenodd" d="m141.113724,43.469176l-0.399523,-0.277696l-0.665804,0l-0.532764,0.277696l0,0l-0.95441,0l-0.665804,0l-0.910063,-0.485993l0,0l0.377299,-0.347095l0.532764,-0.312345l0.288505,-0.208297l0,0l0,0.208297l0.532663,0.312345l0.554887,0l0.3774,-0.312345l0,0l-1.087651,-0.208297l1.243015,0l1.820025,-0.312345l1.620314,0l0,0l-0.3774,0.312345l0,0.208297l0.155364,0l0,0l0,0l-0.310729,0.312345l0,-0.312345l0.155364,0l0,-0.208297l0,0l-0.688028,0.208297l-0.554887,-0.208297l-0.910063,0.208297l0,0l0.532764,0l-0.133242,0l-0.244158,0l-0.155364,0.312345l0,0l0,0.347095l0.532764,0l0.554887,-0.347095l0.532663,0.347095l0,0l-0.155364,0.485993l-0.554887,0.347095l-0.51054,-0.347095z" id="path239"/>
      <path stroke="null" fill="#607d8b" fill-rule="evenodd" d="m150.768838,41.803101l-0.199711,0.312345l0,0.208297l0,0.312345l0,0l-0.332952,-0.520642l-0.377299,0.208297l-0.532764,-0.208297l-0.710251,0l0,0l-1.442726,-0.312345l0.3774,-0.312345l3.551256,0.312345l-0.155364,0.832987l-0.177588,-0.832987z" id="path241"/>
      <path stroke="null" fill="#607d8b" fill-rule="evenodd" d="m146.462883,41.803101l0,0.312345l-0.532663,0l0,-0.312345l0.532663,0z" id="path243"/>
      <path stroke="null" fill="#607d8b" fill-rule="evenodd" d="m136.608058,73.214673l-0.177588,0l0,0l-0.155364,0l0,0l0.332952,-0.624791l0,0.277696l0.377299,-0.485993l-0.177588,-0.347095l-0.377299,0.347095l-0.155364,-0.347095l0,0l0.155364,0l0,-0.485892l0,0l0,0l0.554887,0l0,-0.347095l-0.177588,-0.277696l-0.199711,0l0,0l-0.177588,0l0,-0.555291l0.554887,0l0,0.312345l0,0l0.155364,0.242946l0,0l0.887839,0.624791l0.688028,1.041284l0.799045,0.832987l0,0l-0.95441,0l-0.887839,0.312446l-0.865616,-0.312446l0,0l-0.199711,-0.208196z" id="path245"/>
      <path stroke="null" fill="#607d8b" fill-rule="evenodd" d="m138.183925,70.680861l-0.155364,-0.62469l-0.133141,0l-0.222036,-0.520642l0,0l-0.310729,-0.312446l0.310729,-0.555291l0,-0.832987l0.51054,-0.520642l0,0l-0.51054,-0.312446l0,0l0.222036,0l0,-0.312345l0,0l-0.222036,-0.208297l-0.310729,-0.312345l0.133242,-0.277696l0,0l0,0.277696l0.177487,0l0.355176,0.312345l0,0l0.399523,0.520642l0.288505,0.555392l0.554887,0.62469l0,0l0.776923,0.833088l0.532663,1.353629l0.532663,1.180082l0,0l-0.244158,0.832987l-0.288505,0.833088l-0.399523,0.208196l0,0l-0.532663,-0.832987l-0.688129,-1.041284l-0.776822,-0.867737z" id="path247"/>
      <path stroke="null" fill="#607d8b" fill-rule="evenodd" d="m141.424453,73.42287l0.754699,-3.366698l1.065427,-3.054454l1.242914,-3.019603l0,0l0.155364,0l-0.310729,1.318879l-0.554887,1.388379l-0.377299,1.492427l0,0l-0.3774,0.485993l-0.155364,0.867737l-0.377299,0.520642l0,0l0,1.145332l0,-0.277696l-0.310729,0.833088l-0.221935,1.110683l-0.532764,0.555291z" id="path249"/>
      <path stroke="null" fill="#607d8b" fill-rule="evenodd" d="m138.183925,65.300993l0,-0.242946l0,-0.242946l0.244158,0l0,0l0,0l-0.244158,-0.590041l0.377299,0l0.155364,0.242946l0.244158,0.347095l0,0l0,-0.590041l-0.244158,-0.242946l-0.155364,-0.590041l0,0l0.155364,0l0.3774,0l0.177487,0l0,0l-0.310729,-0.590142l0,-0.520541l0,-0.833088l0,0l0,0.242946l0.133242,0.590142l0.177487,0.242946l0,0l0.244158,0l0,-0.833088l0.288606,0.833088l-0.155364,0l-0.133242,0.277595l-0.244158,0l0,0l0,0.312446l0.3774,0l0.155364,0l0.244158,-0.312446l0,0l2.441482,3.887441l-1.065427,3.366799l-0.843392,-1.041284l-0.932186,-1.180082l-0.688129,-1.35373l-0.776822,-1.180082z" id="path251"/>
      <path stroke="null" fill="#607d8b" fill-rule="evenodd" d="m140.181538,60.858261l0,-0.242946l-0.133141,-0.347095l-0.244158,-0.520642l0,0l0.377299,0l0,0.277696l0,0l0.155364,0.242946l0,0l0.244158,0l0.133141,0l0,-0.242946l0,0l-0.133141,-0.277696l-0.244158,0l0,-0.590041l0,0l0.377299,-0.242946l0.399523,0.242946l0.133242,-0.590041l0,0l-0.133242,0l-0.399523,-0.242946l0,-0.242946l0,0l0.910063,0.832987l0.865616,1.110683l0.754699,1.665974l0.710251,1.423129l0,0l-1.087651,2.533711l-0.909962,-1.423028l-0.843493,-1.700724l-0.932186,-1.666075z" id="path253"/>
      <path stroke="null" fill="#607d8b" fill-rule="evenodd" d="m145.552921,61.448302l0,-0.347095l0.177487,0.347095l0,0.242946l0,0.243047l0,0l-0.332851,0.590041l-0.222036,-0.242946l0.222036,-0.590142l0.155364,-0.242946z" id="path255"/>
      <path stroke="null" fill="#607d8b" fill-rule="evenodd" d="m141.801853,56.38088l-0.177588,0l-0.199812,0l-0.177487,0.277595l0,0l0,0.242946l0.177487,0l0,0l0,0l0,0.347095l-0.310729,0l0.133242,-0.590041l0.177487,-0.277595l0.3774,-0.312446l0,0l0,0l0.155364,-0.520642l0,0l0.221935,0l0,0l0,0l0,0.242946l-0.221935,0.277696l0,0.312446l0,0l0.377299,0l0.155364,-0.590142l0,-0.242946l0,0l0,-0.590041l0.221935,0l0,0l0,0.242946l0,0l0.532764,0.347095l0.710251,1.353629l0.688028,1.666075l0.377299,1.700724l0,0l-0.688028,2.01317l-0.754699,-1.666075l-0.865616,-1.180082l-0.532663,-1.353629l-0.377299,-1.700724z" id="path257"/>
      <path stroke="null" fill="#607d8b" fill-rule="evenodd" d="m145.552921,58.914591l-0.688129,-1.666075l-0.754598,-1.457778l-0.865616,-1.90892l0,0l0,0l0.155364,0l0,-0.347095l0,0l-0.155364,-0.242946l-0.222036,0.242946l0,0l0,0l0,0l0.222036,-0.832987l0.332851,0l0.199812,0.312345l0.332952,-0.312345l0,0l-0.332952,0.312345l0.177588,0.277696l0.377299,-0.590041l0,-0.520642l-0.221935,-0.798338l0,0l0.754598,0.451243l0.532764,0.867737l0.532663,0.590041l0,0l-0.199812,0l0.532764,1.423028l0.532663,1.075933l0,1.457778l0,0l-0.332952,0.485993l-0.355075,0.832987l-0.554887,0.347095z" id="path259"/>
      <path stroke="null" fill="#607d8b" fill-rule="evenodd" d="m145.175521,50.757965l0.222036,0l0.155364,-0.590041l0,-0.242946l0,0l0.177487,0l0.199812,0l0.332952,0l0,0l-0.155364,-0.208196l-0.3774,0l0,-0.381845l0,0l0.3774,0l0,-0.277696l0.355075,0l0.865616,1.700724l0.754699,1.666075l0.532663,1.700724l0,0l-0.377299,0.832987l-0.355176,0.590041l-0.332851,0.520642l0,0l-0.754699,-1.700724l-0.688028,-1.94367l-0.932287,-1.666075z" id="path261"/>
      <path stroke="null" fill="#607d8b" fill-rule="evenodd" d="m148.948813,53.534723l-0.532663,-1.94367l-0.710251,-1.666075l-0.910063,-1.700724l0,0l0.377299,-0.832987l0,0l0,0l0.155364,0l0,0l0.222036,-0.208297l0.155364,0.208297l0.177487,-0.833088l0,0.243047l0,0.381744l0,0l0,0l0.910063,0.832987l0.688028,1.31898l0.532764,1.423028l0,0l0.377299,1.076034l-0.532663,0.590041l-0.532764,1.110683l0,0l-0.377299,0z" id="path263"/>
      <path stroke="null" fill="#607d8b" fill-rule="evenodd" d="m143.57743,52.181094l0.199812,0l0,0l0,-0.347095l0,0l0.177588,0l0,0.347095l-0.3774,0z" id="path265"/>
      <path stroke="null" fill="#607d8b" fill-rule="evenodd" d="m163.264957,49.924978l0,1.666075l-0.155364,-1.666075l0.155364,0z" id="path267"/>
      <path stroke="null" fill="#607d8b" fill-rule="evenodd" d="m149.858876,48.4672l-0.3774,-0.832987l-0.310729,-1.076034l-0.554887,-0.867636l0,0l0.177588,0.312345l0.155364,-0.520642l0.532663,0.208297l0,-0.520642l0,0l-0.155364,0l0.532764,0.312345l0,-0.312345l1.08755,1.180082l0.688028,1.874271l0.754699,1.94367l0,0l-0.377299,0.590041l-0.532764,0.242946l-0.532663,0.381845l0,0l-1.08755,-2.915556z" id="path269"/>
      <path stroke="null" fill="#607d8b" fill-rule="evenodd" d="m152.544517,48.849044l-0.532663,-1.666075l-0.532764,-1.492427l-0.710251,-1.388379l0,0l0.554887,-0.277696l0,0.624791l0.310729,0l0.3774,0.208196l0,0l1.620213,4.859327l-0.532663,0.451142l-0.377299,-0.451142l-0.177588,-0.867737z" id="path271"/>
      <path stroke="null" fill="#607d8b" fill-rule="evenodd" d="m152.544517,44.024468l0.554887,-0.555291l0.688028,1.700724l0.532764,2.013069l0.554887,1.874271l0,0l-0.865616,0.659541l-0.3774,-2.082569l-0.532663,-1.94367l-0.554887,-1.666075z" id="path273"/>
      <path stroke="null" fill="#607d8b" fill-rule="evenodd" d="m160.202018,47.182969l0.221935,0.451243l0,0.832987l0,0.867737l0,0l0,-0.867737l-0.221935,-0.451243l0,-0.832987z" id="path275"/>
      <path stroke="null" fill="#607d8b" fill-rule="evenodd" d="m158.581703,45.482245l0.532764,3.574995l-0.155465,-1.041284l-0.133141,-1.214731l-0.244158,-1.31898z" id="path277"/>
      <path stroke="null" fill="#607d8b" fill-rule="evenodd" d="m155.252381,48.849044l-0.377299,-2.047819l-0.554887,-1.943771l-0.532764,-1.665974l0,0l0.3774,0.277696l0.155364,0.347095l0.377299,0l0,0l0.554887,1.353629l0.377299,2.013069l0.133242,1.666075l0,0l-0.51054,0z" id="path279"/>
      <path stroke="null" fill="#607d8b" fill-rule="evenodd" d="m155.62968,44.649258l0.532764,1.041284l0.288505,1.492427l0.244158,1.666075l0,0l-0.244158,-1.457778l-0.288505,-1.388379l-0.532764,-1.353629z" id="path281"/>
      <path stroke="null" fill="#607d8b" fill-rule="evenodd" d="m151.634454,44.024468l0,-0.208196l0.3774,0l0,0.208196l-0.155364,0.277696l-0.222036,-0.277696z" id="path283"/>
      <path stroke="null" fill="#607d8b" fill-rule="evenodd" d="m147.883386,72.867579l-0.710251,0.347095l-0.710251,0l-0.732475,0l0,0l-0.177487,-0.624791l0,-0.208297l-0.155364,-0.62469l0,0l0,0.62469l0,0.485993l0,0.347095l0,0l-0.532764,0l0.532764,-2.290866l-0.532764,0.624791l-0.221935,0.832987l-0.155364,0.833088l0,0l-0.532663,-1.180183l-0.3774,-1.110683l0.532764,-0.867636l0,0l0.532663,0l0.377299,0.62469l0.3774,0l0,0l0,-0.62469l0,0l0.155364,0l0,-0.208297l0,0l-0.532764,0l-0.377299,-0.312345l-0.532663,0.312345l0,0l0.221935,-0.624791l0.155364,-0.555291l0,-0.485993l0,0l0.155364,0.485993l0.377299,0l0.3774,0.347095l0,0l-0.222036,-0.833088l0.3774,-0.346994l0.554887,0l0.355075,0l0,0l0.332952,-0.277696l0.221935,-0.867737l0,-0.520642l0,0l-0.754598,0.520642l-0.710251,0.867737l-0.688129,0.277696l0,0l0.155364,-0.520642l0.710251,-0.312446l0.532764,-0.832987l0,0l0.754598,-0.520642l0.688129,0l0.532663,-0.590041l0,0l0.554887,1.110683l-0.177588,0l-0.199711,-0.277696l0,-0.242946l0,0l-0.177588,0.242946l-0.355176,0l-0.177487,0l0,0l0.177487,0.277696l0.199812,0.312345l0,0.208297l0,0l-0.377299,0.312345l0.177487,0.312446l0,0.242946l0,0l0.199812,-0.555392l0.532663,0l0.554887,0l0,0l0,0.312446l0.155364,0l0,0l0,0l0,0l0.3774,0.520642l0.310729,0.346994l-0.155364,0.485993l0,0l0.377299,0.347095l0,0.208196l0,0.624791l0,0l-0.221935,0l-0.155364,0.208297l-0.155364,0.312345l0,0l0,0.555291l-0.222036,-0.242946l0,-0.312345l-0.310729,0l0,0l0.155364,0.555291l0.155364,0.624791l0.3774,0.208297l0,0l0.155364,0l0,-0.208297l-0.155364,-0.347095l0,0l0.532663,-0.832987l0.177588,0.312345l0.199711,-0.312345l0,-0.312345l0,-0.208297l0,0l0.177588,0l0,0.208297l0,0l0,0l0,0.62469l-0.177588,0.242946l0,0.624791l0,0l0,0.485892l-0.199711,0l-0.332952,0.347095l-0.221935,-0.347095l0,0l0,0.555392l-0.155364,0.277696l-0.155364,0l0,0l0,-0.485993l-0.3774,-0.832987l-0.155364,-0.347095l0,0l0,0.555392l0.155364,0.62469l0.155364,0.833088l0,0l-0.310729,0l0,-0.347095l0,0l-0.221935,-0.277696l0,0l0,0.277696l0,0l0,0.347095l0,0l-0.532663,0l-0.332952,0l-0.199812,-0.347095z" id="path285"/>
      <path stroke="null" fill="#607d8b" fill-rule="evenodd" d="m143.57743,72.589883l0,0l0.3774,0l0,0.624791l0,0l-0.177588,0l-0.199812,-0.347095l0,-0.277696z" id="path287"/>
      <path stroke="null" fill="#607d8b" fill-rule="evenodd" d="m150.946426,73.214673l0.532663,-0.624791l0.532764,-0.555392l0.377299,-0.485892l0,0l-0.532663,-0.347095l0.532663,-0.520642l0.155364,0.520642l0.177588,0.555392l0.377299,0.62469l0,0l-0.177588,0l0,0l-0.199711,-0.347095l0,0l0,0.833088l-0.332952,0l-0.377299,-0.277696l-0.3774,0l0,0l0,0.624791l-0.688028,0z" id="path289"/>
      <path stroke="null" fill="#607d8b" fill-rule="evenodd" d="m151.479089,70.056172l0,0.62469l0,0.520642l0,0.555392l0,0l-0.155364,-0.555392l0,-0.520642l0.155364,-0.62469z" id="path291"/>
      <path stroke="null" fill="#607d8b" fill-rule="evenodd" d="m152.921816,70.680861l0.177588,-0.312345l0.155364,0.555291l-0.155364,0l0,-0.242946l-0.177588,0z" id="path293"/>
      <path stroke="null" fill="#607d8b" fill-rule="evenodd" d="m155.252381,70.056172l0,0l0,-0.208297l0.155364,0l0,0l-0.155364,0.520642l0,-0.312345z" id="path295"/>
      <path stroke="null" fill="#607d8b" fill-rule="evenodd" d="m157.5385,69.014887l0,0.208196l-0.177487,0.624791l-0.3774,0.208297l0,0l0.554887,-1.041284z" id="path297"/>
      <path stroke="null" fill="#607d8b" fill-rule="evenodd" d="m156.828248,69.223083l-0.133141,0.833088l0,-0.520642l0.133141,-0.312446z" id="path299"/>
      <path stroke="null" fill="#607d8b" fill-rule="evenodd" d="m151.323725,69.223083l0,-0.208196l0,-0.347095l0.155364,0l0,0l0,0.555291l-0.155364,0z" id="path301"/>
      <path stroke="null" fill="#607d8b" fill-rule="evenodd" d="m150.236175,66.689372l0.155364,0.312345l-0.155364,0.312446l-0.221935,0.242946l0,0l0,-0.242946l0,-0.312446l0.221935,-0.312345z" id="path303"/>
      <path stroke="null" fill="#607d8b" fill-rule="evenodd" d="m145.93022,65.648088l0.177588,0.242946l0.155364,-0.832987l0.199711,-0.832987l0.332952,-0.590041l0,0l-0.155364,1.423028l-0.710251,1.110683l-0.754699,0.520642l0,0l0,-0.208297l0.3774,-0.590041l0.377299,-0.242946z" id="path305"/>
      <path stroke="null" fill="#607d8b" fill-rule="evenodd" d="m148.948813,65.058047l0,-0.242946l0.377299,0.242946l-0.155364,0l0,0l-0.221935,0z" id="path307"/>
      <path stroke="null" fill="#607d8b" fill-rule="evenodd" d="m147.705899,63.392073l-0.155364,0.590041l0,-0.590041l0.155364,0z" id="path309"/>
     </g>
    </g>
   </g>
  </g>
 </g>
</svg>